G04 #@! TF.FileFunction,Copper,L1,Top,Signal*
%FSLAX46Y46*%
G04 Gerber Fmt 4.6, Leading zero omitted, Abs format (unit mm)*
G04 Created by KiCad (PCBNEW 4.0.2-stable) date 6/14/2016 9:54:22 PM*
%MOMM*%
G01*
G04 APERTURE LIST*
%ADD10C,0.100000*%
%ADD11R,1.250000X1.000000*%
%ADD12R,1.000000X1.250000*%
%ADD13R,2.032000X2.032000*%
%ADD14O,2.032000X2.032000*%
%ADD15R,1.300000X0.700000*%
%ADD16R,0.550000X1.600000*%
%ADD17R,1.600000X0.550000*%
%ADD18R,1.600000X1.400000*%
%ADD19R,1.727200X1.727200*%
%ADD20O,1.727200X1.727200*%
%ADD21O,1.600000X1.600000*%
%ADD22C,0.600000*%
%ADD23C,0.635000*%
%ADD24C,0.762000*%
%ADD25C,0.381000*%
%ADD26C,0.254000*%
G04 APERTURE END LIST*
D10*
D11*
X156908500Y-136509000D03*
X156908500Y-134509000D03*
D12*
X156575000Y-149796500D03*
X154575000Y-149796500D03*
X158956500Y-149796500D03*
X160956500Y-149796500D03*
D13*
X155448000Y-124968000D03*
D14*
X152908000Y-124968000D03*
D13*
X162306000Y-124968000D03*
D14*
X159766000Y-124968000D03*
D15*
X162560000Y-121473000D03*
X162560000Y-119573000D03*
X160147000Y-119573000D03*
X160147000Y-121473000D03*
X157734000Y-119573000D03*
X157734000Y-121473000D03*
X155321000Y-119573000D03*
X155321000Y-121473000D03*
X152908000Y-121473000D03*
X152908000Y-119573000D03*
D16*
X154934000Y-147506000D03*
X155734000Y-147506000D03*
X156534000Y-147506000D03*
X157334000Y-147506000D03*
X158134000Y-147506000D03*
X158934000Y-147506000D03*
X159734000Y-147506000D03*
X160534000Y-147506000D03*
D17*
X161984000Y-146056000D03*
X161984000Y-145256000D03*
X161984000Y-144456000D03*
X161984000Y-143656000D03*
X161984000Y-142856000D03*
X161984000Y-142056000D03*
X161984000Y-141256000D03*
X161984000Y-140456000D03*
D16*
X160534000Y-139006000D03*
X159734000Y-139006000D03*
X158934000Y-139006000D03*
X158134000Y-139006000D03*
X157334000Y-139006000D03*
X156534000Y-139006000D03*
X155734000Y-139006000D03*
X154934000Y-139006000D03*
D17*
X153484000Y-140456000D03*
X153484000Y-141256000D03*
X153484000Y-142056000D03*
X153484000Y-142856000D03*
X153484000Y-143656000D03*
X153484000Y-144456000D03*
X153484000Y-145256000D03*
X153484000Y-146056000D03*
D18*
X160508000Y-152102500D03*
X160508000Y-154352500D03*
X158008000Y-152102500D03*
X158008000Y-154352500D03*
D19*
X162306000Y-135890000D03*
D20*
X159766000Y-135890000D03*
X162306000Y-133350000D03*
X159766000Y-133350000D03*
X162306000Y-130810000D03*
X159766000Y-130810000D03*
D21*
X150114000Y-120396000D03*
X150114000Y-122936000D03*
X150114000Y-125476000D03*
X150114000Y-128016000D03*
X150114000Y-130556000D03*
X150114000Y-133096000D03*
X150114000Y-135636000D03*
X150114000Y-138176000D03*
X150114000Y-140716000D03*
X150114000Y-143256000D03*
X150114000Y-145796000D03*
X150114000Y-148336000D03*
X150114000Y-150876000D03*
X150114000Y-153416000D03*
X165354000Y-153416000D03*
X165354000Y-150876000D03*
X165354000Y-148336000D03*
X165354000Y-145796000D03*
X165354000Y-143256000D03*
X165354000Y-140716000D03*
X165354000Y-138176000D03*
X165354000Y-135636000D03*
X165354000Y-133096000D03*
X165354000Y-130556000D03*
X165354000Y-128016000D03*
X165354000Y-125476000D03*
X165354000Y-122936000D03*
X165354000Y-120396000D03*
D22*
X157797500Y-150939500D03*
X157797500Y-149923500D03*
X163449000Y-118872000D03*
X157289500Y-146113500D03*
X161925000Y-154368500D03*
X162052000Y-150241000D03*
X157353000Y-140398500D03*
X160464500Y-143700500D03*
X154940000Y-143637000D03*
X160528000Y-142875000D03*
X155765500Y-122555000D03*
X152908000Y-122491500D03*
X160401000Y-142049500D03*
X158750000Y-146113500D03*
X155765500Y-146177000D03*
X160591500Y-146050000D03*
X154940000Y-144526000D03*
X153987500Y-147637500D03*
X159639000Y-146113500D03*
X153416000Y-147066000D03*
D23*
X157797500Y-149923500D02*
X157797500Y-150939500D01*
X157334000Y-149037500D02*
X157334000Y-149460000D01*
X157334000Y-149460000D02*
X157797500Y-149923500D01*
X158008000Y-152102500D02*
X158008000Y-151150000D01*
X158008000Y-151150000D02*
X157797500Y-150939500D01*
X158956500Y-149796500D02*
X157924500Y-149796500D01*
X157924500Y-149796500D02*
X157797500Y-149923500D01*
X162560000Y-119573000D02*
X162748000Y-119573000D01*
X162748000Y-119573000D02*
X163449000Y-118872000D01*
X157334000Y-147506000D02*
X157334000Y-149037500D01*
X157334000Y-149037500D02*
X156575000Y-149796500D01*
X158934000Y-147506000D02*
X158934000Y-149774000D01*
X158934000Y-149774000D02*
X158956500Y-149796500D01*
X159734000Y-139006000D02*
X159734000Y-137921500D01*
X159734000Y-137921500D02*
X158321500Y-136509000D01*
D24*
X158940500Y-135890000D02*
X158321500Y-136509000D01*
X158321500Y-136509000D02*
X156908500Y-136509000D01*
X159766000Y-135890000D02*
X158940500Y-135890000D01*
D25*
X157289500Y-146113500D02*
X157797500Y-146113500D01*
X156845000Y-146113500D02*
X157289500Y-146113500D01*
D23*
X160508000Y-154352500D02*
X161909000Y-154352500D01*
X161909000Y-154352500D02*
X161925000Y-154368500D01*
X160956500Y-149796500D02*
X161607500Y-149796500D01*
X161607500Y-149796500D02*
X162052000Y-150241000D01*
D25*
X156534000Y-147506000D02*
X156534000Y-146424500D01*
X158134000Y-146450000D02*
X158134000Y-147506000D01*
X157797500Y-146113500D02*
X158134000Y-146450000D01*
X156534000Y-146424500D02*
X156845000Y-146113500D01*
D23*
X157334000Y-139006000D02*
X157334000Y-140379500D01*
X157334000Y-140379500D02*
X157353000Y-140398500D01*
D24*
X159766000Y-130810000D02*
X158305500Y-130810000D01*
X156908500Y-132207000D02*
X156908500Y-134509000D01*
X158305500Y-130810000D02*
X156908500Y-132207000D01*
D23*
X154575000Y-149796500D02*
X153733500Y-149796500D01*
X153733500Y-149796500D02*
X150114000Y-153416000D01*
D26*
X156845000Y-120459500D02*
X159260500Y-120459500D01*
X159260500Y-120459500D02*
X160147000Y-119573000D01*
X156527500Y-120777000D02*
X156845000Y-120459500D01*
X156527500Y-122809000D02*
X156527500Y-120777000D01*
X155448000Y-123888500D02*
X156527500Y-122809000D01*
X155448000Y-124968000D02*
X155448000Y-123888500D01*
X161984000Y-143656000D02*
X160509000Y-143656000D01*
X160509000Y-143656000D02*
X160464500Y-143700500D01*
X162306000Y-135890000D02*
X162306000Y-140134000D01*
X162306000Y-140134000D02*
X161984000Y-140456000D01*
X150114000Y-135636000D02*
X157495102Y-135636000D01*
X157495102Y-135636000D02*
X158590501Y-134540601D01*
X158590501Y-134540601D02*
X161115399Y-134540601D01*
X161115399Y-134540601D02*
X161442401Y-134213599D01*
X161442401Y-134213599D02*
X162306000Y-133350000D01*
X161036000Y-136906000D02*
X161036000Y-134620000D01*
X161036000Y-134620000D02*
X162306000Y-133350000D01*
X160534000Y-137408000D02*
X161036000Y-136906000D01*
X160534000Y-139006000D02*
X160534000Y-137408000D01*
X163318979Y-140975021D02*
X163318979Y-138870453D01*
X163512500Y-138676932D02*
X163512500Y-132588000D01*
X163038000Y-141256000D02*
X163318979Y-140975021D01*
X163318979Y-138870453D02*
X163512500Y-138676932D01*
X160629599Y-132486401D02*
X159766000Y-133350000D01*
X161036000Y-132080000D02*
X160629599Y-132486401D01*
X163004500Y-132080000D02*
X161036000Y-132080000D01*
X163512500Y-132588000D02*
X163004500Y-132080000D01*
X161984000Y-141256000D02*
X163038000Y-141256000D01*
X153484000Y-143656000D02*
X154921000Y-143656000D01*
X154921000Y-143656000D02*
X154940000Y-143637000D01*
X150114000Y-130556000D02*
X151257000Y-129413000D01*
X151257000Y-129413000D02*
X160909000Y-129413000D01*
X160909000Y-129413000D02*
X161442401Y-129946401D01*
X161442401Y-129946401D02*
X162306000Y-130810000D01*
D24*
X157734000Y-121473000D02*
X160147000Y-121473000D01*
X160147000Y-121473000D02*
X162560000Y-121473000D01*
X162560000Y-121473000D02*
X162626000Y-121539000D01*
X162626000Y-121539000D02*
X163957000Y-121539000D01*
X163957000Y-121539000D02*
X165354000Y-122936000D01*
X157734000Y-119573000D02*
X155321000Y-119573000D01*
X155321000Y-119573000D02*
X152908000Y-119573000D01*
D26*
X160528000Y-142875000D02*
X161965000Y-142875000D01*
X161965000Y-142875000D02*
X161984000Y-142856000D01*
X155321000Y-121473000D02*
X155321000Y-122110500D01*
X155321000Y-122110500D02*
X155765500Y-122555000D01*
X152908000Y-122491500D02*
X152908000Y-121473000D01*
X161984000Y-142056000D02*
X160407500Y-142056000D01*
X160407500Y-142056000D02*
X160401000Y-142049500D01*
X160020000Y-148846000D02*
X160020000Y-150660500D01*
X160020000Y-150660500D02*
X160508000Y-151148500D01*
X160508000Y-151148500D02*
X160508000Y-152102500D01*
X159734000Y-147506000D02*
X159734000Y-148560000D01*
X159734000Y-148560000D02*
X160020000Y-148846000D01*
X158122999Y-145486499D02*
X158450001Y-145813501D01*
X155528039Y-145486499D02*
X158122999Y-145486499D01*
X154934000Y-146080538D02*
X155528039Y-145486499D01*
X158450001Y-145813501D02*
X158750000Y-146113500D01*
X154934000Y-147506000D02*
X154934000Y-146080538D01*
X155765500Y-146177000D02*
X155765500Y-147474500D01*
X155765500Y-147474500D02*
X155734000Y-147506000D01*
X165354000Y-140716000D02*
X165354000Y-141351000D01*
X165354000Y-141351000D02*
X164211000Y-142494000D01*
X164211000Y-142494000D02*
X164211000Y-145542000D01*
X164211000Y-145542000D02*
X163697000Y-146056000D01*
X163697000Y-146056000D02*
X161984000Y-146056000D01*
X165354000Y-138176000D02*
X165354000Y-139048038D01*
X165354000Y-139048038D02*
X164226999Y-140175039D01*
X163038000Y-145256000D02*
X161984000Y-145256000D01*
X164226999Y-140175039D02*
X164226999Y-141716001D01*
X164226999Y-141716001D02*
X163756990Y-142186010D01*
X163756990Y-142186010D02*
X163756990Y-144537010D01*
X163756990Y-144537010D02*
X163038000Y-145256000D01*
X163038000Y-144456000D02*
X161984000Y-144456000D01*
X163302979Y-144191021D02*
X163038000Y-144456000D01*
X163772988Y-141527944D02*
X163302979Y-141997953D01*
X163772988Y-139986982D02*
X163772988Y-141527944D01*
X165354000Y-135636000D02*
X164226999Y-136763001D01*
X163302979Y-141997953D02*
X163302979Y-144191021D01*
X164226999Y-139532971D02*
X163772988Y-139986982D01*
X164226999Y-136763001D02*
X164226999Y-139532971D01*
X150114000Y-140716000D02*
X153352500Y-137477500D01*
X153352500Y-137477500D02*
X155448000Y-137477500D01*
X155448000Y-137477500D02*
X155734000Y-137763500D01*
X155734000Y-137763500D02*
X155734000Y-139006000D01*
X150114000Y-143256000D02*
X150913999Y-142456001D01*
X150913999Y-142456001D02*
X150913999Y-141583963D01*
X150913999Y-141583963D02*
X151241001Y-141256961D01*
X151241001Y-141256961D02*
X151241001Y-141049499D01*
X151241001Y-141049499D02*
X153284500Y-139006000D01*
X153284500Y-139006000D02*
X154405000Y-139006000D01*
X154405000Y-139006000D02*
X154934000Y-139006000D01*
X150114000Y-145796000D02*
X151374489Y-144535511D01*
X151374489Y-144535511D02*
X151374489Y-141765541D01*
X151374489Y-141765541D02*
X152684030Y-140456000D01*
X152684030Y-140456000D02*
X153484000Y-140456000D01*
X153484000Y-141256000D02*
X152526098Y-141256000D01*
X152526098Y-141256000D02*
X151828500Y-141953598D01*
X151828500Y-141953598D02*
X151828500Y-146621500D01*
X151828500Y-146621500D02*
X150114000Y-148336000D01*
X152336500Y-142367000D02*
X152647500Y-142056000D01*
X152647500Y-142056000D02*
X153484000Y-142056000D01*
X152336500Y-148844000D02*
X152336500Y-142367000D01*
X150304500Y-150876000D02*
X152336500Y-148844000D01*
X150114000Y-150876000D02*
X150304500Y-150876000D01*
X153484000Y-142856000D02*
X157397500Y-142856000D01*
X157397500Y-142856000D02*
X160591500Y-146050000D01*
X154940000Y-144526000D02*
X153554000Y-144526000D01*
X153554000Y-144526000D02*
X153484000Y-144456000D01*
X154368500Y-148653500D02*
X153987500Y-148272500D01*
X153987500Y-148272500D02*
X153987500Y-147637500D01*
X155194000Y-148653500D02*
X154368500Y-148653500D01*
X155575000Y-149034500D02*
X155194000Y-148653500D01*
X155575000Y-150685500D02*
X155575000Y-149034500D01*
X156273500Y-151384000D02*
X155575000Y-150685500D01*
X156273500Y-152717500D02*
X156273500Y-151384000D01*
X156781500Y-153225500D02*
X156273500Y-152717500D01*
X161480500Y-153225500D02*
X156781500Y-153225500D01*
X161671000Y-153416000D02*
X161480500Y-153225500D01*
X165354000Y-153416000D02*
X161671000Y-153416000D01*
X165354000Y-153416000D02*
X165290500Y-153416000D01*
X155339982Y-145032488D02*
X158557988Y-145032488D01*
X155116470Y-145256000D02*
X155339982Y-145032488D01*
X159339001Y-145813501D02*
X159639000Y-146113500D01*
X153484000Y-145256000D02*
X155116470Y-145256000D01*
X158557988Y-145032488D02*
X159339001Y-145813501D01*
X153416000Y-147066000D02*
X153484000Y-146998000D01*
X153484000Y-146998000D02*
X153484000Y-146056000D01*
M02*
