G04 #@! TF.FileFunction,Copper,L3,Inr,Signal*
%FSLAX46Y46*%
G04 Gerber Fmt 4.6, Leading zero omitted, Abs format (unit mm)*
G04 Created by KiCad (PCBNEW 4.0.2-stable) date 6/14/2016 9:54:22 PM*
%MOMM*%
G01*
G04 APERTURE LIST*
%ADD10C,0.100000*%
%ADD11R,2.032000X2.032000*%
%ADD12O,2.032000X2.032000*%
%ADD13R,1.727200X1.727200*%
%ADD14O,1.727200X1.727200*%
%ADD15O,1.600000X1.600000*%
%ADD16C,0.600000*%
G04 APERTURE END LIST*
D10*
D11*
X155448000Y-124968000D03*
D12*
X152908000Y-124968000D03*
D11*
X162306000Y-124968000D03*
D12*
X159766000Y-124968000D03*
D13*
X162306000Y-135890000D03*
D14*
X159766000Y-135890000D03*
X162306000Y-133350000D03*
X159766000Y-133350000D03*
X162306000Y-130810000D03*
X159766000Y-130810000D03*
D15*
X150114000Y-120396000D03*
X150114000Y-122936000D03*
X150114000Y-125476000D03*
X150114000Y-128016000D03*
X150114000Y-130556000D03*
X150114000Y-133096000D03*
X150114000Y-135636000D03*
X150114000Y-138176000D03*
X150114000Y-140716000D03*
X150114000Y-143256000D03*
X150114000Y-145796000D03*
X150114000Y-148336000D03*
X150114000Y-150876000D03*
X150114000Y-153416000D03*
X165354000Y-153416000D03*
X165354000Y-150876000D03*
X165354000Y-148336000D03*
X165354000Y-145796000D03*
X165354000Y-143256000D03*
X165354000Y-140716000D03*
X165354000Y-138176000D03*
X165354000Y-135636000D03*
X165354000Y-133096000D03*
X165354000Y-130556000D03*
X165354000Y-128016000D03*
X165354000Y-125476000D03*
X165354000Y-122936000D03*
X165354000Y-120396000D03*
D16*
X157797500Y-150939500D03*
X157797500Y-149923500D03*
X163449000Y-118872000D03*
X157289500Y-146113500D03*
X161925000Y-154368500D03*
X162052000Y-150241000D03*
X157353000Y-140398500D03*
X160464500Y-143700500D03*
X154940000Y-143637000D03*
X160528000Y-142875000D03*
X155765500Y-122555000D03*
X152908000Y-122491500D03*
X160401000Y-142049500D03*
X158750000Y-146113500D03*
X155765500Y-146177000D03*
X160591500Y-146050000D03*
X154940000Y-144526000D03*
X153987500Y-147637500D03*
X159639000Y-146113500D03*
X153416000Y-147066000D03*
D10*
G36*
X156393729Y-118838963D02*
X156549816Y-118903616D01*
X157649526Y-119122362D01*
X157818476Y-119122362D01*
X158918185Y-118903616D01*
X159074272Y-118838962D01*
X159897349Y-118289000D01*
X163136899Y-118289000D01*
X163076760Y-118313849D01*
X162891500Y-118498786D01*
X162791114Y-118740541D01*
X162790886Y-119002310D01*
X162890849Y-119244240D01*
X163075786Y-119429500D01*
X163317541Y-119529886D01*
X163579310Y-119530114D01*
X163821240Y-119430151D01*
X164006500Y-119245214D01*
X164106886Y-119003459D01*
X164107114Y-118741690D01*
X164007151Y-118499760D01*
X163822214Y-118314500D01*
X163760804Y-118289000D01*
X166064000Y-118289000D01*
X166064000Y-119489294D01*
X165819834Y-119326148D01*
X165376687Y-119238000D01*
X165331313Y-119238000D01*
X164888166Y-119326148D01*
X164512483Y-119577170D01*
X164261461Y-119952853D01*
X164173313Y-120396000D01*
X164261461Y-120839147D01*
X164512483Y-121214830D01*
X164888166Y-121465852D01*
X165331313Y-121554000D01*
X165376687Y-121554000D01*
X165819834Y-121465852D01*
X166064000Y-121302706D01*
X166064000Y-122029294D01*
X165819834Y-121866148D01*
X165376687Y-121778000D01*
X165331313Y-121778000D01*
X164888166Y-121866148D01*
X164512483Y-122117170D01*
X164261461Y-122492853D01*
X164173313Y-122936000D01*
X164261461Y-123379147D01*
X164512483Y-123754830D01*
X164888166Y-124005852D01*
X165331313Y-124094000D01*
X165376687Y-124094000D01*
X165819834Y-124005852D01*
X166064000Y-123842706D01*
X166064000Y-124569294D01*
X165819834Y-124406148D01*
X165376687Y-124318000D01*
X165331313Y-124318000D01*
X164888166Y-124406148D01*
X164512483Y-124657170D01*
X164261461Y-125032853D01*
X164173313Y-125476000D01*
X164261461Y-125919147D01*
X164512483Y-126294830D01*
X164888166Y-126545852D01*
X165331313Y-126634000D01*
X165376687Y-126634000D01*
X165819834Y-126545852D01*
X166064000Y-126382706D01*
X166064000Y-127109294D01*
X165819834Y-126946148D01*
X165376687Y-126858000D01*
X165331313Y-126858000D01*
X164888166Y-126946148D01*
X164512483Y-127197170D01*
X164261461Y-127572853D01*
X164173313Y-128016000D01*
X164261461Y-128459147D01*
X164512483Y-128834830D01*
X164888166Y-129085852D01*
X165331313Y-129174000D01*
X165376687Y-129174000D01*
X165819834Y-129085852D01*
X166064000Y-128922706D01*
X166064000Y-129649294D01*
X165819834Y-129486148D01*
X165376687Y-129398000D01*
X165331313Y-129398000D01*
X164888166Y-129486148D01*
X164512483Y-129737170D01*
X164261461Y-130112853D01*
X164173313Y-130556000D01*
X164261461Y-130999147D01*
X164512483Y-131374830D01*
X164888166Y-131625852D01*
X165331313Y-131714000D01*
X165376687Y-131714000D01*
X165819834Y-131625852D01*
X166064000Y-131462706D01*
X166064000Y-132189294D01*
X165819834Y-132026148D01*
X165376687Y-131938000D01*
X165331313Y-131938000D01*
X164888166Y-132026148D01*
X164512483Y-132277170D01*
X164261461Y-132652853D01*
X164173313Y-133096000D01*
X164261461Y-133539147D01*
X164512483Y-133914830D01*
X164888166Y-134165852D01*
X165331313Y-134254000D01*
X165376687Y-134254000D01*
X165819834Y-134165852D01*
X166064000Y-134002706D01*
X166064000Y-134729294D01*
X165819834Y-134566148D01*
X165376687Y-134478000D01*
X165331313Y-134478000D01*
X164888166Y-134566148D01*
X164512483Y-134817170D01*
X164261461Y-135192853D01*
X164173313Y-135636000D01*
X164261461Y-136079147D01*
X164512483Y-136454830D01*
X164888166Y-136705852D01*
X165331313Y-136794000D01*
X165376687Y-136794000D01*
X165819834Y-136705852D01*
X166064000Y-136542706D01*
X166064000Y-137269294D01*
X165819834Y-137106148D01*
X165376687Y-137018000D01*
X165331313Y-137018000D01*
X164888166Y-137106148D01*
X164512483Y-137357170D01*
X164261461Y-137732853D01*
X164173313Y-138176000D01*
X164261461Y-138619147D01*
X164512483Y-138994830D01*
X164888166Y-139245852D01*
X165331313Y-139334000D01*
X165376687Y-139334000D01*
X165819834Y-139245852D01*
X166064000Y-139082706D01*
X166064000Y-139809294D01*
X165819834Y-139646148D01*
X165376687Y-139558000D01*
X165331313Y-139558000D01*
X164888166Y-139646148D01*
X164512483Y-139897170D01*
X164261461Y-140272853D01*
X164173313Y-140716000D01*
X164261461Y-141159147D01*
X164512483Y-141534830D01*
X164888166Y-141785852D01*
X165331313Y-141874000D01*
X165376687Y-141874000D01*
X165819834Y-141785852D01*
X166064000Y-141622706D01*
X166064000Y-142349294D01*
X165819834Y-142186148D01*
X165376687Y-142098000D01*
X165331313Y-142098000D01*
X164888166Y-142186148D01*
X164512483Y-142437170D01*
X164261461Y-142812853D01*
X164173313Y-143256000D01*
X164261461Y-143699147D01*
X164512483Y-144074830D01*
X164888166Y-144325852D01*
X165331313Y-144414000D01*
X165376687Y-144414000D01*
X165819834Y-144325852D01*
X166064000Y-144162706D01*
X166064000Y-144889294D01*
X165819834Y-144726148D01*
X165376687Y-144638000D01*
X165331313Y-144638000D01*
X164888166Y-144726148D01*
X164512483Y-144977170D01*
X164261461Y-145352853D01*
X164173313Y-145796000D01*
X164261461Y-146239147D01*
X164512483Y-146614830D01*
X164888166Y-146865852D01*
X165331313Y-146954000D01*
X165376687Y-146954000D01*
X165819834Y-146865852D01*
X166064000Y-146702706D01*
X166064000Y-147429294D01*
X165819834Y-147266148D01*
X165376687Y-147178000D01*
X165331313Y-147178000D01*
X164888166Y-147266148D01*
X164512483Y-147517170D01*
X164261461Y-147892853D01*
X164173313Y-148336000D01*
X164261461Y-148779147D01*
X164512483Y-149154830D01*
X164888166Y-149405852D01*
X165331313Y-149494000D01*
X165376687Y-149494000D01*
X165819834Y-149405852D01*
X166064000Y-149242706D01*
X166064000Y-149969294D01*
X165819834Y-149806148D01*
X165376687Y-149718000D01*
X165331313Y-149718000D01*
X164888166Y-149806148D01*
X164512483Y-150057170D01*
X164261461Y-150432853D01*
X164173313Y-150876000D01*
X164261461Y-151319147D01*
X164512483Y-151694830D01*
X164888166Y-151945852D01*
X165331313Y-152034000D01*
X165376687Y-152034000D01*
X165819834Y-151945852D01*
X166064000Y-151782706D01*
X166064000Y-152509294D01*
X165819834Y-152346148D01*
X165376687Y-152258000D01*
X165331313Y-152258000D01*
X164888166Y-152346148D01*
X164512483Y-152597170D01*
X164261461Y-152972853D01*
X164173313Y-153416000D01*
X164261461Y-153859147D01*
X164512483Y-154234830D01*
X164888166Y-154485852D01*
X165331313Y-154574000D01*
X165376687Y-154574000D01*
X165819834Y-154485852D01*
X166064000Y-154322706D01*
X166064000Y-155523000D01*
X149404000Y-155523000D01*
X149404000Y-154545465D01*
X149702482Y-154710165D01*
X149910000Y-154619107D01*
X149910000Y-153620000D01*
X150318000Y-153620000D01*
X150318000Y-154619107D01*
X150525518Y-154710165D01*
X150989449Y-154454171D01*
X151320100Y-154040125D01*
X151408148Y-153827516D01*
X151315302Y-153620000D01*
X150318000Y-153620000D01*
X149910000Y-153620000D01*
X149890000Y-153620000D01*
X149890000Y-153212000D01*
X149910000Y-153212000D01*
X149910000Y-152212893D01*
X150318000Y-152212893D01*
X150318000Y-153212000D01*
X151315302Y-153212000D01*
X151408148Y-153004484D01*
X151320100Y-152791875D01*
X150989449Y-152377829D01*
X150525518Y-152121835D01*
X150318000Y-152212893D01*
X149910000Y-152212893D01*
X149702482Y-152121835D01*
X149404000Y-152286535D01*
X149404000Y-151782706D01*
X149648166Y-151945852D01*
X150091313Y-152034000D01*
X150136687Y-152034000D01*
X150579834Y-151945852D01*
X150955517Y-151694830D01*
X151206539Y-151319147D01*
X151294687Y-150876000D01*
X151206539Y-150432853D01*
X150955517Y-150057170D01*
X150950489Y-150053810D01*
X157139386Y-150053810D01*
X157239349Y-150295740D01*
X157374947Y-150431575D01*
X157240000Y-150566286D01*
X157139614Y-150808041D01*
X157139386Y-151069810D01*
X157239349Y-151311740D01*
X157424286Y-151497000D01*
X157666041Y-151597386D01*
X157927810Y-151597614D01*
X158169740Y-151497651D01*
X158355000Y-151312714D01*
X158455386Y-151070959D01*
X158455614Y-150809190D01*
X158355651Y-150567260D01*
X158220053Y-150431425D01*
X158355000Y-150296714D01*
X158455386Y-150054959D01*
X158455614Y-149793190D01*
X158355651Y-149551260D01*
X158170714Y-149366000D01*
X157928959Y-149265614D01*
X157667190Y-149265386D01*
X157425260Y-149365349D01*
X157240000Y-149550286D01*
X157139614Y-149792041D01*
X157139386Y-150053810D01*
X150950489Y-150053810D01*
X150579834Y-149806148D01*
X150136687Y-149718000D01*
X150091313Y-149718000D01*
X149648166Y-149806148D01*
X149404000Y-149969294D01*
X149404000Y-149242706D01*
X149648166Y-149405852D01*
X150091313Y-149494000D01*
X150136687Y-149494000D01*
X150579834Y-149405852D01*
X150955517Y-149154830D01*
X151206539Y-148779147D01*
X151294687Y-148336000D01*
X151206539Y-147892853D01*
X150955517Y-147517170D01*
X150579834Y-147266148D01*
X150228737Y-147196310D01*
X152757886Y-147196310D01*
X152857849Y-147438240D01*
X153042786Y-147623500D01*
X153284541Y-147723886D01*
X153329424Y-147723925D01*
X153329386Y-147767810D01*
X153429349Y-148009740D01*
X153614286Y-148195000D01*
X153856041Y-148295386D01*
X154117810Y-148295614D01*
X154359740Y-148195651D01*
X154545000Y-148010714D01*
X154645386Y-147768959D01*
X154645614Y-147507190D01*
X154545651Y-147265260D01*
X154360714Y-147080000D01*
X154118959Y-146979614D01*
X154074076Y-146979575D01*
X154074114Y-146935690D01*
X153974151Y-146693760D01*
X153789214Y-146508500D01*
X153547459Y-146408114D01*
X153285690Y-146407886D01*
X153043760Y-146507849D01*
X152858500Y-146692786D01*
X152758114Y-146934541D01*
X152757886Y-147196310D01*
X150228737Y-147196310D01*
X150136687Y-147178000D01*
X150091313Y-147178000D01*
X149648166Y-147266148D01*
X149404000Y-147429294D01*
X149404000Y-146702706D01*
X149648166Y-146865852D01*
X150091313Y-146954000D01*
X150136687Y-146954000D01*
X150579834Y-146865852D01*
X150955517Y-146614830D01*
X151160994Y-146307310D01*
X155107386Y-146307310D01*
X155207349Y-146549240D01*
X155392286Y-146734500D01*
X155634041Y-146834886D01*
X155895810Y-146835114D01*
X156137740Y-146735151D01*
X156323000Y-146550214D01*
X156423386Y-146308459D01*
X156423442Y-146243810D01*
X158091886Y-146243810D01*
X158191849Y-146485740D01*
X158376786Y-146671000D01*
X158618541Y-146771386D01*
X158880310Y-146771614D01*
X159122240Y-146671651D01*
X159194464Y-146599553D01*
X159265786Y-146671000D01*
X159507541Y-146771386D01*
X159769310Y-146771614D01*
X160011240Y-146671651D01*
X160147019Y-146536109D01*
X160218286Y-146607500D01*
X160460041Y-146707886D01*
X160721810Y-146708114D01*
X160963740Y-146608151D01*
X161149000Y-146423214D01*
X161249386Y-146181459D01*
X161249614Y-145919690D01*
X161149651Y-145677760D01*
X160964714Y-145492500D01*
X160722959Y-145392114D01*
X160461190Y-145391886D01*
X160219260Y-145491849D01*
X160083481Y-145627391D01*
X160012214Y-145556000D01*
X159770459Y-145455614D01*
X159508690Y-145455386D01*
X159266760Y-145555349D01*
X159194536Y-145627447D01*
X159123214Y-145556000D01*
X158881459Y-145455614D01*
X158619690Y-145455386D01*
X158377760Y-145555349D01*
X158192500Y-145740286D01*
X158092114Y-145982041D01*
X158091886Y-146243810D01*
X156423442Y-146243810D01*
X156423614Y-146046690D01*
X156323651Y-145804760D01*
X156138714Y-145619500D01*
X155896959Y-145519114D01*
X155635190Y-145518886D01*
X155393260Y-145618849D01*
X155208000Y-145803786D01*
X155107614Y-146045541D01*
X155107386Y-146307310D01*
X151160994Y-146307310D01*
X151206539Y-146239147D01*
X151294687Y-145796000D01*
X151206539Y-145352853D01*
X150955517Y-144977170D01*
X150579834Y-144726148D01*
X150136687Y-144638000D01*
X150091313Y-144638000D01*
X149648166Y-144726148D01*
X149404000Y-144889294D01*
X149404000Y-144162706D01*
X149648166Y-144325852D01*
X150091313Y-144414000D01*
X150136687Y-144414000D01*
X150579834Y-144325852D01*
X150955517Y-144074830D01*
X151160994Y-143767310D01*
X154281886Y-143767310D01*
X154381849Y-144009240D01*
X154453947Y-144081464D01*
X154382500Y-144152786D01*
X154282114Y-144394541D01*
X154281886Y-144656310D01*
X154381849Y-144898240D01*
X154566786Y-145083500D01*
X154808541Y-145183886D01*
X155070310Y-145184114D01*
X155312240Y-145084151D01*
X155497500Y-144899214D01*
X155597886Y-144657459D01*
X155598114Y-144395690D01*
X155498151Y-144153760D01*
X155426053Y-144081536D01*
X155497500Y-144010214D01*
X155597886Y-143768459D01*
X155598114Y-143506690D01*
X155498151Y-143264760D01*
X155313214Y-143079500D01*
X155071459Y-142979114D01*
X154809690Y-142978886D01*
X154567760Y-143078849D01*
X154382500Y-143263786D01*
X154282114Y-143505541D01*
X154281886Y-143767310D01*
X151160994Y-143767310D01*
X151206539Y-143699147D01*
X151294687Y-143256000D01*
X151206539Y-142812853D01*
X150955517Y-142437170D01*
X150579834Y-142186148D01*
X150547971Y-142179810D01*
X159742886Y-142179810D01*
X159842849Y-142421740D01*
X159956474Y-142535564D01*
X159870114Y-142743541D01*
X159869886Y-143005310D01*
X159969849Y-143247240D01*
X159978502Y-143255908D01*
X159907000Y-143327286D01*
X159806614Y-143569041D01*
X159806386Y-143830810D01*
X159906349Y-144072740D01*
X160091286Y-144258000D01*
X160333041Y-144358386D01*
X160594810Y-144358614D01*
X160836740Y-144258651D01*
X161022000Y-144073714D01*
X161122386Y-143831959D01*
X161122614Y-143570190D01*
X161022651Y-143328260D01*
X161013998Y-143319592D01*
X161085500Y-143248214D01*
X161185886Y-143006459D01*
X161186114Y-142744690D01*
X161086151Y-142502760D01*
X160972526Y-142388936D01*
X161058886Y-142180959D01*
X161059114Y-141919190D01*
X160959151Y-141677260D01*
X160774214Y-141492000D01*
X160532459Y-141391614D01*
X160270690Y-141391386D01*
X160028760Y-141491349D01*
X159843500Y-141676286D01*
X159743114Y-141918041D01*
X159742886Y-142179810D01*
X150547971Y-142179810D01*
X150136687Y-142098000D01*
X150091313Y-142098000D01*
X149648166Y-142186148D01*
X149404000Y-142349294D01*
X149404000Y-141622706D01*
X149648166Y-141785852D01*
X150091313Y-141874000D01*
X150136687Y-141874000D01*
X150579834Y-141785852D01*
X150955517Y-141534830D01*
X151206539Y-141159147D01*
X151294687Y-140716000D01*
X151206539Y-140272853D01*
X150955517Y-139897170D01*
X150579834Y-139646148D01*
X150136687Y-139558000D01*
X150091313Y-139558000D01*
X149648166Y-139646148D01*
X149404000Y-139809294D01*
X149404000Y-139082706D01*
X149648166Y-139245852D01*
X150091313Y-139334000D01*
X150136687Y-139334000D01*
X150579834Y-139245852D01*
X150955517Y-138994830D01*
X151206539Y-138619147D01*
X151294687Y-138176000D01*
X151206539Y-137732853D01*
X150955517Y-137357170D01*
X150579834Y-137106148D01*
X150136687Y-137018000D01*
X150091313Y-137018000D01*
X149648166Y-137106148D01*
X149404000Y-137269294D01*
X149404000Y-136542706D01*
X149648166Y-136705852D01*
X150091313Y-136794000D01*
X150136687Y-136794000D01*
X150579834Y-136705852D01*
X150955517Y-136454830D01*
X151206539Y-136079147D01*
X151244162Y-135890000D01*
X158520467Y-135890000D01*
X158613456Y-136357486D01*
X158878265Y-136753802D01*
X159274581Y-137018611D01*
X159742067Y-137111600D01*
X159789933Y-137111600D01*
X160257419Y-137018611D01*
X160653735Y-136753802D01*
X160918544Y-136357486D01*
X161011533Y-135890000D01*
X160918544Y-135422514D01*
X160653870Y-135026400D01*
X161077387Y-135026400D01*
X161077387Y-136753600D01*
X161102350Y-136886267D01*
X161180756Y-137008113D01*
X161300389Y-137089855D01*
X161442400Y-137118613D01*
X163169600Y-137118613D01*
X163302267Y-137093650D01*
X163424113Y-137015244D01*
X163505855Y-136895611D01*
X163534613Y-136753600D01*
X163534613Y-135026400D01*
X163509650Y-134893733D01*
X163431244Y-134771887D01*
X163311611Y-134690145D01*
X163169600Y-134661387D01*
X161442400Y-134661387D01*
X161309733Y-134686350D01*
X161187887Y-134764756D01*
X161106145Y-134884389D01*
X161077387Y-135026400D01*
X160653870Y-135026400D01*
X160653735Y-135026198D01*
X160257419Y-134761389D01*
X159789933Y-134668400D01*
X159742067Y-134668400D01*
X159274581Y-134761389D01*
X158878265Y-135026198D01*
X158613456Y-135422514D01*
X158520467Y-135890000D01*
X151244162Y-135890000D01*
X151294687Y-135636000D01*
X151206539Y-135192853D01*
X150955517Y-134817170D01*
X150579834Y-134566148D01*
X150136687Y-134478000D01*
X150091313Y-134478000D01*
X149648166Y-134566148D01*
X149404000Y-134729294D01*
X149404000Y-134002706D01*
X149648166Y-134165852D01*
X150091313Y-134254000D01*
X150136687Y-134254000D01*
X150579834Y-134165852D01*
X150955517Y-133914830D01*
X151206539Y-133539147D01*
X151294687Y-133096000D01*
X151206539Y-132652853D01*
X150955517Y-132277170D01*
X150579834Y-132026148D01*
X150136687Y-131938000D01*
X150091313Y-131938000D01*
X149648166Y-132026148D01*
X149404000Y-132189294D01*
X149404000Y-131462706D01*
X149648166Y-131625852D01*
X150091313Y-131714000D01*
X150136687Y-131714000D01*
X150579834Y-131625852D01*
X150955517Y-131374830D01*
X151051237Y-131231574D01*
X158408347Y-131231574D01*
X158507883Y-131471917D01*
X158856956Y-131902992D01*
X159344423Y-132167669D01*
X159561998Y-132077404D01*
X159561998Y-132164218D01*
X159274581Y-132221389D01*
X158878265Y-132486198D01*
X158613456Y-132882514D01*
X158520467Y-133350000D01*
X158613456Y-133817486D01*
X158878265Y-134213802D01*
X159274581Y-134478611D01*
X159742067Y-134571600D01*
X159789933Y-134571600D01*
X160257419Y-134478611D01*
X160653735Y-134213802D01*
X160918544Y-133817486D01*
X161011533Y-133350000D01*
X161060467Y-133350000D01*
X161153456Y-133817486D01*
X161418265Y-134213802D01*
X161814581Y-134478611D01*
X162282067Y-134571600D01*
X162329933Y-134571600D01*
X162797419Y-134478611D01*
X163193735Y-134213802D01*
X163458544Y-133817486D01*
X163551533Y-133350000D01*
X163458544Y-132882514D01*
X163193735Y-132486198D01*
X162797419Y-132221389D01*
X162329933Y-132128400D01*
X162282067Y-132128400D01*
X161814581Y-132221389D01*
X161418265Y-132486198D01*
X161153456Y-132882514D01*
X161060467Y-133350000D01*
X161011533Y-133350000D01*
X160918544Y-132882514D01*
X160653735Y-132486198D01*
X160257419Y-132221389D01*
X159970002Y-132164218D01*
X159970002Y-132077404D01*
X160187577Y-132167669D01*
X160675044Y-131902992D01*
X161024117Y-131471917D01*
X161123653Y-131231574D01*
X161031767Y-131014002D01*
X161101046Y-131014002D01*
X161153456Y-131277486D01*
X161418265Y-131673802D01*
X161814581Y-131938611D01*
X162282067Y-132031600D01*
X162329933Y-132031600D01*
X162797419Y-131938611D01*
X163193735Y-131673802D01*
X163458544Y-131277486D01*
X163551533Y-130810000D01*
X163458544Y-130342514D01*
X163193735Y-129946198D01*
X162797419Y-129681389D01*
X162329933Y-129588400D01*
X162282067Y-129588400D01*
X161814581Y-129681389D01*
X161418265Y-129946198D01*
X161153456Y-130342514D01*
X161101046Y-130605998D01*
X161031767Y-130605998D01*
X161123653Y-130388426D01*
X161024117Y-130148083D01*
X160675044Y-129717008D01*
X160187577Y-129452331D01*
X159970000Y-129542597D01*
X159970000Y-130606000D01*
X159990000Y-130606000D01*
X159990000Y-131014000D01*
X159970000Y-131014000D01*
X159970000Y-131034000D01*
X159562000Y-131034000D01*
X159562000Y-131014000D01*
X158500234Y-131014000D01*
X158408347Y-131231574D01*
X151051237Y-131231574D01*
X151206539Y-130999147D01*
X151294687Y-130556000D01*
X151261355Y-130388426D01*
X158408347Y-130388426D01*
X158500234Y-130606000D01*
X159562000Y-130606000D01*
X159562000Y-129542597D01*
X159344423Y-129452331D01*
X158856956Y-129717008D01*
X158507883Y-130148083D01*
X158408347Y-130388426D01*
X151261355Y-130388426D01*
X151206539Y-130112853D01*
X150955517Y-129737170D01*
X150579834Y-129486148D01*
X150136687Y-129398000D01*
X150091313Y-129398000D01*
X149648166Y-129486148D01*
X149404000Y-129649294D01*
X149404000Y-128922706D01*
X149648166Y-129085852D01*
X150091313Y-129174000D01*
X150136687Y-129174000D01*
X150579834Y-129085852D01*
X150955517Y-128834830D01*
X151206539Y-128459147D01*
X151294687Y-128016000D01*
X151206539Y-127572853D01*
X150955517Y-127197170D01*
X150579834Y-126946148D01*
X150136687Y-126858000D01*
X150091313Y-126858000D01*
X149648166Y-126946148D01*
X149404000Y-127109294D01*
X149404000Y-126382706D01*
X149648166Y-126545852D01*
X150091313Y-126634000D01*
X150136687Y-126634000D01*
X150579834Y-126545852D01*
X150955517Y-126294830D01*
X151206539Y-125919147D01*
X151294687Y-125476000D01*
X151282284Y-125413642D01*
X151398389Y-125413642D01*
X151683841Y-125957423D01*
X152155660Y-126350573D01*
X152462361Y-126477596D01*
X152704000Y-126387921D01*
X152704000Y-125172000D01*
X151486761Y-125172000D01*
X151398389Y-125413642D01*
X151282284Y-125413642D01*
X151206539Y-125032853D01*
X150955517Y-124657170D01*
X150753756Y-124522358D01*
X151398389Y-124522358D01*
X151486761Y-124764000D01*
X152704000Y-124764000D01*
X152704000Y-123548079D01*
X153112000Y-123548079D01*
X153112000Y-124764000D01*
X153132000Y-124764000D01*
X153132000Y-125172000D01*
X153112000Y-125172000D01*
X153112000Y-126387921D01*
X153353639Y-126477596D01*
X153660340Y-126350573D01*
X154071497Y-126007970D01*
X154091950Y-126116667D01*
X154170356Y-126238513D01*
X154289989Y-126320255D01*
X154432000Y-126349013D01*
X156464000Y-126349013D01*
X156596667Y-126324050D01*
X156718513Y-126245644D01*
X156800255Y-126126011D01*
X156829013Y-125984000D01*
X156829013Y-125413642D01*
X158256389Y-125413642D01*
X158541841Y-125957423D01*
X159013660Y-126350573D01*
X159320361Y-126477596D01*
X159562000Y-126387921D01*
X159562000Y-125172000D01*
X158344761Y-125172000D01*
X158256389Y-125413642D01*
X156829013Y-125413642D01*
X156829013Y-124522358D01*
X158256389Y-124522358D01*
X158344761Y-124764000D01*
X159562000Y-124764000D01*
X159562000Y-123548079D01*
X159970000Y-123548079D01*
X159970000Y-124764000D01*
X159990000Y-124764000D01*
X159990000Y-125172000D01*
X159970000Y-125172000D01*
X159970000Y-126387921D01*
X160211639Y-126477596D01*
X160518340Y-126350573D01*
X160929497Y-126007970D01*
X160949950Y-126116667D01*
X161028356Y-126238513D01*
X161147989Y-126320255D01*
X161290000Y-126349013D01*
X163322000Y-126349013D01*
X163454667Y-126324050D01*
X163576513Y-126245644D01*
X163658255Y-126126011D01*
X163687013Y-125984000D01*
X163687013Y-123952000D01*
X163662050Y-123819333D01*
X163583644Y-123697487D01*
X163464011Y-123615745D01*
X163322000Y-123586987D01*
X161290000Y-123586987D01*
X161157333Y-123611950D01*
X161035487Y-123690356D01*
X160953745Y-123809989D01*
X160929791Y-123928275D01*
X160518340Y-123585427D01*
X160211639Y-123458404D01*
X159970000Y-123548079D01*
X159562000Y-123548079D01*
X159320361Y-123458404D01*
X159013660Y-123585427D01*
X158541841Y-123978577D01*
X158256389Y-124522358D01*
X156829013Y-124522358D01*
X156829013Y-123952000D01*
X156804050Y-123819333D01*
X156725644Y-123697487D01*
X156606011Y-123615745D01*
X156464000Y-123586987D01*
X154432000Y-123586987D01*
X154299333Y-123611950D01*
X154177487Y-123690356D01*
X154095745Y-123809989D01*
X154071791Y-123928275D01*
X153660340Y-123585427D01*
X153353639Y-123458404D01*
X153112000Y-123548079D01*
X152704000Y-123548079D01*
X152462361Y-123458404D01*
X152155660Y-123585427D01*
X151683841Y-123978577D01*
X151398389Y-124522358D01*
X150753756Y-124522358D01*
X150579834Y-124406148D01*
X150136687Y-124318000D01*
X150091313Y-124318000D01*
X149648166Y-124406148D01*
X149404000Y-124569294D01*
X149404000Y-123842706D01*
X149648166Y-124005852D01*
X150091313Y-124094000D01*
X150136687Y-124094000D01*
X150579834Y-124005852D01*
X150955517Y-123754830D01*
X151206539Y-123379147D01*
X151294687Y-122936000D01*
X151232191Y-122621810D01*
X152249886Y-122621810D01*
X152349849Y-122863740D01*
X152534786Y-123049000D01*
X152776541Y-123149386D01*
X153038310Y-123149614D01*
X153280240Y-123049651D01*
X153465500Y-122864714D01*
X153539995Y-122685310D01*
X155107386Y-122685310D01*
X155207349Y-122927240D01*
X155392286Y-123112500D01*
X155634041Y-123212886D01*
X155895810Y-123213114D01*
X156137740Y-123113151D01*
X156323000Y-122928214D01*
X156423386Y-122686459D01*
X156423614Y-122424690D01*
X156323651Y-122182760D01*
X156138714Y-121997500D01*
X155896959Y-121897114D01*
X155635190Y-121896886D01*
X155393260Y-121996849D01*
X155208000Y-122181786D01*
X155107614Y-122423541D01*
X155107386Y-122685310D01*
X153539995Y-122685310D01*
X153565886Y-122622959D01*
X153566114Y-122361190D01*
X153466151Y-122119260D01*
X153281214Y-121934000D01*
X153039459Y-121833614D01*
X152777690Y-121833386D01*
X152535760Y-121933349D01*
X152350500Y-122118286D01*
X152250114Y-122360041D01*
X152249886Y-122621810D01*
X151232191Y-122621810D01*
X151206539Y-122492853D01*
X150955517Y-122117170D01*
X150579834Y-121866148D01*
X150136687Y-121778000D01*
X150091313Y-121778000D01*
X149648166Y-121866148D01*
X149404000Y-122029294D01*
X149404000Y-121302706D01*
X149648166Y-121465852D01*
X150091313Y-121554000D01*
X150136687Y-121554000D01*
X150579834Y-121465852D01*
X150955517Y-121214830D01*
X151206539Y-120839147D01*
X151294687Y-120396000D01*
X151206539Y-119952853D01*
X150955517Y-119577170D01*
X150579834Y-119326148D01*
X150136687Y-119238000D01*
X150091313Y-119238000D01*
X149648166Y-119326148D01*
X149404000Y-119489294D01*
X149404000Y-118289000D01*
X155570651Y-118289000D01*
X156393729Y-118838963D01*
X156393729Y-118838963D01*
G37*
X156393729Y-118838963D02*
X156549816Y-118903616D01*
X157649526Y-119122362D01*
X157818476Y-119122362D01*
X158918185Y-118903616D01*
X159074272Y-118838962D01*
X159897349Y-118289000D01*
X163136899Y-118289000D01*
X163076760Y-118313849D01*
X162891500Y-118498786D01*
X162791114Y-118740541D01*
X162790886Y-119002310D01*
X162890849Y-119244240D01*
X163075786Y-119429500D01*
X163317541Y-119529886D01*
X163579310Y-119530114D01*
X163821240Y-119430151D01*
X164006500Y-119245214D01*
X164106886Y-119003459D01*
X164107114Y-118741690D01*
X164007151Y-118499760D01*
X163822214Y-118314500D01*
X163760804Y-118289000D01*
X166064000Y-118289000D01*
X166064000Y-119489294D01*
X165819834Y-119326148D01*
X165376687Y-119238000D01*
X165331313Y-119238000D01*
X164888166Y-119326148D01*
X164512483Y-119577170D01*
X164261461Y-119952853D01*
X164173313Y-120396000D01*
X164261461Y-120839147D01*
X164512483Y-121214830D01*
X164888166Y-121465852D01*
X165331313Y-121554000D01*
X165376687Y-121554000D01*
X165819834Y-121465852D01*
X166064000Y-121302706D01*
X166064000Y-122029294D01*
X165819834Y-121866148D01*
X165376687Y-121778000D01*
X165331313Y-121778000D01*
X164888166Y-121866148D01*
X164512483Y-122117170D01*
X164261461Y-122492853D01*
X164173313Y-122936000D01*
X164261461Y-123379147D01*
X164512483Y-123754830D01*
X164888166Y-124005852D01*
X165331313Y-124094000D01*
X165376687Y-124094000D01*
X165819834Y-124005852D01*
X166064000Y-123842706D01*
X166064000Y-124569294D01*
X165819834Y-124406148D01*
X165376687Y-124318000D01*
X165331313Y-124318000D01*
X164888166Y-124406148D01*
X164512483Y-124657170D01*
X164261461Y-125032853D01*
X164173313Y-125476000D01*
X164261461Y-125919147D01*
X164512483Y-126294830D01*
X164888166Y-126545852D01*
X165331313Y-126634000D01*
X165376687Y-126634000D01*
X165819834Y-126545852D01*
X166064000Y-126382706D01*
X166064000Y-127109294D01*
X165819834Y-126946148D01*
X165376687Y-126858000D01*
X165331313Y-126858000D01*
X164888166Y-126946148D01*
X164512483Y-127197170D01*
X164261461Y-127572853D01*
X164173313Y-128016000D01*
X164261461Y-128459147D01*
X164512483Y-128834830D01*
X164888166Y-129085852D01*
X165331313Y-129174000D01*
X165376687Y-129174000D01*
X165819834Y-129085852D01*
X166064000Y-128922706D01*
X166064000Y-129649294D01*
X165819834Y-129486148D01*
X165376687Y-129398000D01*
X165331313Y-129398000D01*
X164888166Y-129486148D01*
X164512483Y-129737170D01*
X164261461Y-130112853D01*
X164173313Y-130556000D01*
X164261461Y-130999147D01*
X164512483Y-131374830D01*
X164888166Y-131625852D01*
X165331313Y-131714000D01*
X165376687Y-131714000D01*
X165819834Y-131625852D01*
X166064000Y-131462706D01*
X166064000Y-132189294D01*
X165819834Y-132026148D01*
X165376687Y-131938000D01*
X165331313Y-131938000D01*
X164888166Y-132026148D01*
X164512483Y-132277170D01*
X164261461Y-132652853D01*
X164173313Y-133096000D01*
X164261461Y-133539147D01*
X164512483Y-133914830D01*
X164888166Y-134165852D01*
X165331313Y-134254000D01*
X165376687Y-134254000D01*
X165819834Y-134165852D01*
X166064000Y-134002706D01*
X166064000Y-134729294D01*
X165819834Y-134566148D01*
X165376687Y-134478000D01*
X165331313Y-134478000D01*
X164888166Y-134566148D01*
X164512483Y-134817170D01*
X164261461Y-135192853D01*
X164173313Y-135636000D01*
X164261461Y-136079147D01*
X164512483Y-136454830D01*
X164888166Y-136705852D01*
X165331313Y-136794000D01*
X165376687Y-136794000D01*
X165819834Y-136705852D01*
X166064000Y-136542706D01*
X166064000Y-137269294D01*
X165819834Y-137106148D01*
X165376687Y-137018000D01*
X165331313Y-137018000D01*
X164888166Y-137106148D01*
X164512483Y-137357170D01*
X164261461Y-137732853D01*
X164173313Y-138176000D01*
X164261461Y-138619147D01*
X164512483Y-138994830D01*
X164888166Y-139245852D01*
X165331313Y-139334000D01*
X165376687Y-139334000D01*
X165819834Y-139245852D01*
X166064000Y-139082706D01*
X166064000Y-139809294D01*
X165819834Y-139646148D01*
X165376687Y-139558000D01*
X165331313Y-139558000D01*
X164888166Y-139646148D01*
X164512483Y-139897170D01*
X164261461Y-140272853D01*
X164173313Y-140716000D01*
X164261461Y-141159147D01*
X164512483Y-141534830D01*
X164888166Y-141785852D01*
X165331313Y-141874000D01*
X165376687Y-141874000D01*
X165819834Y-141785852D01*
X166064000Y-141622706D01*
X166064000Y-142349294D01*
X165819834Y-142186148D01*
X165376687Y-142098000D01*
X165331313Y-142098000D01*
X164888166Y-142186148D01*
X164512483Y-142437170D01*
X164261461Y-142812853D01*
X164173313Y-143256000D01*
X164261461Y-143699147D01*
X164512483Y-144074830D01*
X164888166Y-144325852D01*
X165331313Y-144414000D01*
X165376687Y-144414000D01*
X165819834Y-144325852D01*
X166064000Y-144162706D01*
X166064000Y-144889294D01*
X165819834Y-144726148D01*
X165376687Y-144638000D01*
X165331313Y-144638000D01*
X164888166Y-144726148D01*
X164512483Y-144977170D01*
X164261461Y-145352853D01*
X164173313Y-145796000D01*
X164261461Y-146239147D01*
X164512483Y-146614830D01*
X164888166Y-146865852D01*
X165331313Y-146954000D01*
X165376687Y-146954000D01*
X165819834Y-146865852D01*
X166064000Y-146702706D01*
X166064000Y-147429294D01*
X165819834Y-147266148D01*
X165376687Y-147178000D01*
X165331313Y-147178000D01*
X164888166Y-147266148D01*
X164512483Y-147517170D01*
X164261461Y-147892853D01*
X164173313Y-148336000D01*
X164261461Y-148779147D01*
X164512483Y-149154830D01*
X164888166Y-149405852D01*
X165331313Y-149494000D01*
X165376687Y-149494000D01*
X165819834Y-149405852D01*
X166064000Y-149242706D01*
X166064000Y-149969294D01*
X165819834Y-149806148D01*
X165376687Y-149718000D01*
X165331313Y-149718000D01*
X164888166Y-149806148D01*
X164512483Y-150057170D01*
X164261461Y-150432853D01*
X164173313Y-150876000D01*
X164261461Y-151319147D01*
X164512483Y-151694830D01*
X164888166Y-151945852D01*
X165331313Y-152034000D01*
X165376687Y-152034000D01*
X165819834Y-151945852D01*
X166064000Y-151782706D01*
X166064000Y-152509294D01*
X165819834Y-152346148D01*
X165376687Y-152258000D01*
X165331313Y-152258000D01*
X164888166Y-152346148D01*
X164512483Y-152597170D01*
X164261461Y-152972853D01*
X164173313Y-153416000D01*
X164261461Y-153859147D01*
X164512483Y-154234830D01*
X164888166Y-154485852D01*
X165331313Y-154574000D01*
X165376687Y-154574000D01*
X165819834Y-154485852D01*
X166064000Y-154322706D01*
X166064000Y-155523000D01*
X149404000Y-155523000D01*
X149404000Y-154545465D01*
X149702482Y-154710165D01*
X149910000Y-154619107D01*
X149910000Y-153620000D01*
X150318000Y-153620000D01*
X150318000Y-154619107D01*
X150525518Y-154710165D01*
X150989449Y-154454171D01*
X151320100Y-154040125D01*
X151408148Y-153827516D01*
X151315302Y-153620000D01*
X150318000Y-153620000D01*
X149910000Y-153620000D01*
X149890000Y-153620000D01*
X149890000Y-153212000D01*
X149910000Y-153212000D01*
X149910000Y-152212893D01*
X150318000Y-152212893D01*
X150318000Y-153212000D01*
X151315302Y-153212000D01*
X151408148Y-153004484D01*
X151320100Y-152791875D01*
X150989449Y-152377829D01*
X150525518Y-152121835D01*
X150318000Y-152212893D01*
X149910000Y-152212893D01*
X149702482Y-152121835D01*
X149404000Y-152286535D01*
X149404000Y-151782706D01*
X149648166Y-151945852D01*
X150091313Y-152034000D01*
X150136687Y-152034000D01*
X150579834Y-151945852D01*
X150955517Y-151694830D01*
X151206539Y-151319147D01*
X151294687Y-150876000D01*
X151206539Y-150432853D01*
X150955517Y-150057170D01*
X150950489Y-150053810D01*
X157139386Y-150053810D01*
X157239349Y-150295740D01*
X157374947Y-150431575D01*
X157240000Y-150566286D01*
X157139614Y-150808041D01*
X157139386Y-151069810D01*
X157239349Y-151311740D01*
X157424286Y-151497000D01*
X157666041Y-151597386D01*
X157927810Y-151597614D01*
X158169740Y-151497651D01*
X158355000Y-151312714D01*
X158455386Y-151070959D01*
X158455614Y-150809190D01*
X158355651Y-150567260D01*
X158220053Y-150431425D01*
X158355000Y-150296714D01*
X158455386Y-150054959D01*
X158455614Y-149793190D01*
X158355651Y-149551260D01*
X158170714Y-149366000D01*
X157928959Y-149265614D01*
X157667190Y-149265386D01*
X157425260Y-149365349D01*
X157240000Y-149550286D01*
X157139614Y-149792041D01*
X157139386Y-150053810D01*
X150950489Y-150053810D01*
X150579834Y-149806148D01*
X150136687Y-149718000D01*
X150091313Y-149718000D01*
X149648166Y-149806148D01*
X149404000Y-149969294D01*
X149404000Y-149242706D01*
X149648166Y-149405852D01*
X150091313Y-149494000D01*
X150136687Y-149494000D01*
X150579834Y-149405852D01*
X150955517Y-149154830D01*
X151206539Y-148779147D01*
X151294687Y-148336000D01*
X151206539Y-147892853D01*
X150955517Y-147517170D01*
X150579834Y-147266148D01*
X150228737Y-147196310D01*
X152757886Y-147196310D01*
X152857849Y-147438240D01*
X153042786Y-147623500D01*
X153284541Y-147723886D01*
X153329424Y-147723925D01*
X153329386Y-147767810D01*
X153429349Y-148009740D01*
X153614286Y-148195000D01*
X153856041Y-148295386D01*
X154117810Y-148295614D01*
X154359740Y-148195651D01*
X154545000Y-148010714D01*
X154645386Y-147768959D01*
X154645614Y-147507190D01*
X154545651Y-147265260D01*
X154360714Y-147080000D01*
X154118959Y-146979614D01*
X154074076Y-146979575D01*
X154074114Y-146935690D01*
X153974151Y-146693760D01*
X153789214Y-146508500D01*
X153547459Y-146408114D01*
X153285690Y-146407886D01*
X153043760Y-146507849D01*
X152858500Y-146692786D01*
X152758114Y-146934541D01*
X152757886Y-147196310D01*
X150228737Y-147196310D01*
X150136687Y-147178000D01*
X150091313Y-147178000D01*
X149648166Y-147266148D01*
X149404000Y-147429294D01*
X149404000Y-146702706D01*
X149648166Y-146865852D01*
X150091313Y-146954000D01*
X150136687Y-146954000D01*
X150579834Y-146865852D01*
X150955517Y-146614830D01*
X151160994Y-146307310D01*
X155107386Y-146307310D01*
X155207349Y-146549240D01*
X155392286Y-146734500D01*
X155634041Y-146834886D01*
X155895810Y-146835114D01*
X156137740Y-146735151D01*
X156323000Y-146550214D01*
X156423386Y-146308459D01*
X156423442Y-146243810D01*
X158091886Y-146243810D01*
X158191849Y-146485740D01*
X158376786Y-146671000D01*
X158618541Y-146771386D01*
X158880310Y-146771614D01*
X159122240Y-146671651D01*
X159194464Y-146599553D01*
X159265786Y-146671000D01*
X159507541Y-146771386D01*
X159769310Y-146771614D01*
X160011240Y-146671651D01*
X160147019Y-146536109D01*
X160218286Y-146607500D01*
X160460041Y-146707886D01*
X160721810Y-146708114D01*
X160963740Y-146608151D01*
X161149000Y-146423214D01*
X161249386Y-146181459D01*
X161249614Y-145919690D01*
X161149651Y-145677760D01*
X160964714Y-145492500D01*
X160722959Y-145392114D01*
X160461190Y-145391886D01*
X160219260Y-145491849D01*
X160083481Y-145627391D01*
X160012214Y-145556000D01*
X159770459Y-145455614D01*
X159508690Y-145455386D01*
X159266760Y-145555349D01*
X159194536Y-145627447D01*
X159123214Y-145556000D01*
X158881459Y-145455614D01*
X158619690Y-145455386D01*
X158377760Y-145555349D01*
X158192500Y-145740286D01*
X158092114Y-145982041D01*
X158091886Y-146243810D01*
X156423442Y-146243810D01*
X156423614Y-146046690D01*
X156323651Y-145804760D01*
X156138714Y-145619500D01*
X155896959Y-145519114D01*
X155635190Y-145518886D01*
X155393260Y-145618849D01*
X155208000Y-145803786D01*
X155107614Y-146045541D01*
X155107386Y-146307310D01*
X151160994Y-146307310D01*
X151206539Y-146239147D01*
X151294687Y-145796000D01*
X151206539Y-145352853D01*
X150955517Y-144977170D01*
X150579834Y-144726148D01*
X150136687Y-144638000D01*
X150091313Y-144638000D01*
X149648166Y-144726148D01*
X149404000Y-144889294D01*
X149404000Y-144162706D01*
X149648166Y-144325852D01*
X150091313Y-144414000D01*
X150136687Y-144414000D01*
X150579834Y-144325852D01*
X150955517Y-144074830D01*
X151160994Y-143767310D01*
X154281886Y-143767310D01*
X154381849Y-144009240D01*
X154453947Y-144081464D01*
X154382500Y-144152786D01*
X154282114Y-144394541D01*
X154281886Y-144656310D01*
X154381849Y-144898240D01*
X154566786Y-145083500D01*
X154808541Y-145183886D01*
X155070310Y-145184114D01*
X155312240Y-145084151D01*
X155497500Y-144899214D01*
X155597886Y-144657459D01*
X155598114Y-144395690D01*
X155498151Y-144153760D01*
X155426053Y-144081536D01*
X155497500Y-144010214D01*
X155597886Y-143768459D01*
X155598114Y-143506690D01*
X155498151Y-143264760D01*
X155313214Y-143079500D01*
X155071459Y-142979114D01*
X154809690Y-142978886D01*
X154567760Y-143078849D01*
X154382500Y-143263786D01*
X154282114Y-143505541D01*
X154281886Y-143767310D01*
X151160994Y-143767310D01*
X151206539Y-143699147D01*
X151294687Y-143256000D01*
X151206539Y-142812853D01*
X150955517Y-142437170D01*
X150579834Y-142186148D01*
X150547971Y-142179810D01*
X159742886Y-142179810D01*
X159842849Y-142421740D01*
X159956474Y-142535564D01*
X159870114Y-142743541D01*
X159869886Y-143005310D01*
X159969849Y-143247240D01*
X159978502Y-143255908D01*
X159907000Y-143327286D01*
X159806614Y-143569041D01*
X159806386Y-143830810D01*
X159906349Y-144072740D01*
X160091286Y-144258000D01*
X160333041Y-144358386D01*
X160594810Y-144358614D01*
X160836740Y-144258651D01*
X161022000Y-144073714D01*
X161122386Y-143831959D01*
X161122614Y-143570190D01*
X161022651Y-143328260D01*
X161013998Y-143319592D01*
X161085500Y-143248214D01*
X161185886Y-143006459D01*
X161186114Y-142744690D01*
X161086151Y-142502760D01*
X160972526Y-142388936D01*
X161058886Y-142180959D01*
X161059114Y-141919190D01*
X160959151Y-141677260D01*
X160774214Y-141492000D01*
X160532459Y-141391614D01*
X160270690Y-141391386D01*
X160028760Y-141491349D01*
X159843500Y-141676286D01*
X159743114Y-141918041D01*
X159742886Y-142179810D01*
X150547971Y-142179810D01*
X150136687Y-142098000D01*
X150091313Y-142098000D01*
X149648166Y-142186148D01*
X149404000Y-142349294D01*
X149404000Y-141622706D01*
X149648166Y-141785852D01*
X150091313Y-141874000D01*
X150136687Y-141874000D01*
X150579834Y-141785852D01*
X150955517Y-141534830D01*
X151206539Y-141159147D01*
X151294687Y-140716000D01*
X151206539Y-140272853D01*
X150955517Y-139897170D01*
X150579834Y-139646148D01*
X150136687Y-139558000D01*
X150091313Y-139558000D01*
X149648166Y-139646148D01*
X149404000Y-139809294D01*
X149404000Y-139082706D01*
X149648166Y-139245852D01*
X150091313Y-139334000D01*
X150136687Y-139334000D01*
X150579834Y-139245852D01*
X150955517Y-138994830D01*
X151206539Y-138619147D01*
X151294687Y-138176000D01*
X151206539Y-137732853D01*
X150955517Y-137357170D01*
X150579834Y-137106148D01*
X150136687Y-137018000D01*
X150091313Y-137018000D01*
X149648166Y-137106148D01*
X149404000Y-137269294D01*
X149404000Y-136542706D01*
X149648166Y-136705852D01*
X150091313Y-136794000D01*
X150136687Y-136794000D01*
X150579834Y-136705852D01*
X150955517Y-136454830D01*
X151206539Y-136079147D01*
X151244162Y-135890000D01*
X158520467Y-135890000D01*
X158613456Y-136357486D01*
X158878265Y-136753802D01*
X159274581Y-137018611D01*
X159742067Y-137111600D01*
X159789933Y-137111600D01*
X160257419Y-137018611D01*
X160653735Y-136753802D01*
X160918544Y-136357486D01*
X161011533Y-135890000D01*
X160918544Y-135422514D01*
X160653870Y-135026400D01*
X161077387Y-135026400D01*
X161077387Y-136753600D01*
X161102350Y-136886267D01*
X161180756Y-137008113D01*
X161300389Y-137089855D01*
X161442400Y-137118613D01*
X163169600Y-137118613D01*
X163302267Y-137093650D01*
X163424113Y-137015244D01*
X163505855Y-136895611D01*
X163534613Y-136753600D01*
X163534613Y-135026400D01*
X163509650Y-134893733D01*
X163431244Y-134771887D01*
X163311611Y-134690145D01*
X163169600Y-134661387D01*
X161442400Y-134661387D01*
X161309733Y-134686350D01*
X161187887Y-134764756D01*
X161106145Y-134884389D01*
X161077387Y-135026400D01*
X160653870Y-135026400D01*
X160653735Y-135026198D01*
X160257419Y-134761389D01*
X159789933Y-134668400D01*
X159742067Y-134668400D01*
X159274581Y-134761389D01*
X158878265Y-135026198D01*
X158613456Y-135422514D01*
X158520467Y-135890000D01*
X151244162Y-135890000D01*
X151294687Y-135636000D01*
X151206539Y-135192853D01*
X150955517Y-134817170D01*
X150579834Y-134566148D01*
X150136687Y-134478000D01*
X150091313Y-134478000D01*
X149648166Y-134566148D01*
X149404000Y-134729294D01*
X149404000Y-134002706D01*
X149648166Y-134165852D01*
X150091313Y-134254000D01*
X150136687Y-134254000D01*
X150579834Y-134165852D01*
X150955517Y-133914830D01*
X151206539Y-133539147D01*
X151294687Y-133096000D01*
X151206539Y-132652853D01*
X150955517Y-132277170D01*
X150579834Y-132026148D01*
X150136687Y-131938000D01*
X150091313Y-131938000D01*
X149648166Y-132026148D01*
X149404000Y-132189294D01*
X149404000Y-131462706D01*
X149648166Y-131625852D01*
X150091313Y-131714000D01*
X150136687Y-131714000D01*
X150579834Y-131625852D01*
X150955517Y-131374830D01*
X151051237Y-131231574D01*
X158408347Y-131231574D01*
X158507883Y-131471917D01*
X158856956Y-131902992D01*
X159344423Y-132167669D01*
X159561998Y-132077404D01*
X159561998Y-132164218D01*
X159274581Y-132221389D01*
X158878265Y-132486198D01*
X158613456Y-132882514D01*
X158520467Y-133350000D01*
X158613456Y-133817486D01*
X158878265Y-134213802D01*
X159274581Y-134478611D01*
X159742067Y-134571600D01*
X159789933Y-134571600D01*
X160257419Y-134478611D01*
X160653735Y-134213802D01*
X160918544Y-133817486D01*
X161011533Y-133350000D01*
X161060467Y-133350000D01*
X161153456Y-133817486D01*
X161418265Y-134213802D01*
X161814581Y-134478611D01*
X162282067Y-134571600D01*
X162329933Y-134571600D01*
X162797419Y-134478611D01*
X163193735Y-134213802D01*
X163458544Y-133817486D01*
X163551533Y-133350000D01*
X163458544Y-132882514D01*
X163193735Y-132486198D01*
X162797419Y-132221389D01*
X162329933Y-132128400D01*
X162282067Y-132128400D01*
X161814581Y-132221389D01*
X161418265Y-132486198D01*
X161153456Y-132882514D01*
X161060467Y-133350000D01*
X161011533Y-133350000D01*
X160918544Y-132882514D01*
X160653735Y-132486198D01*
X160257419Y-132221389D01*
X159970002Y-132164218D01*
X159970002Y-132077404D01*
X160187577Y-132167669D01*
X160675044Y-131902992D01*
X161024117Y-131471917D01*
X161123653Y-131231574D01*
X161031767Y-131014002D01*
X161101046Y-131014002D01*
X161153456Y-131277486D01*
X161418265Y-131673802D01*
X161814581Y-131938611D01*
X162282067Y-132031600D01*
X162329933Y-132031600D01*
X162797419Y-131938611D01*
X163193735Y-131673802D01*
X163458544Y-131277486D01*
X163551533Y-130810000D01*
X163458544Y-130342514D01*
X163193735Y-129946198D01*
X162797419Y-129681389D01*
X162329933Y-129588400D01*
X162282067Y-129588400D01*
X161814581Y-129681389D01*
X161418265Y-129946198D01*
X161153456Y-130342514D01*
X161101046Y-130605998D01*
X161031767Y-130605998D01*
X161123653Y-130388426D01*
X161024117Y-130148083D01*
X160675044Y-129717008D01*
X160187577Y-129452331D01*
X159970000Y-129542597D01*
X159970000Y-130606000D01*
X159990000Y-130606000D01*
X159990000Y-131014000D01*
X159970000Y-131014000D01*
X159970000Y-131034000D01*
X159562000Y-131034000D01*
X159562000Y-131014000D01*
X158500234Y-131014000D01*
X158408347Y-131231574D01*
X151051237Y-131231574D01*
X151206539Y-130999147D01*
X151294687Y-130556000D01*
X151261355Y-130388426D01*
X158408347Y-130388426D01*
X158500234Y-130606000D01*
X159562000Y-130606000D01*
X159562000Y-129542597D01*
X159344423Y-129452331D01*
X158856956Y-129717008D01*
X158507883Y-130148083D01*
X158408347Y-130388426D01*
X151261355Y-130388426D01*
X151206539Y-130112853D01*
X150955517Y-129737170D01*
X150579834Y-129486148D01*
X150136687Y-129398000D01*
X150091313Y-129398000D01*
X149648166Y-129486148D01*
X149404000Y-129649294D01*
X149404000Y-128922706D01*
X149648166Y-129085852D01*
X150091313Y-129174000D01*
X150136687Y-129174000D01*
X150579834Y-129085852D01*
X150955517Y-128834830D01*
X151206539Y-128459147D01*
X151294687Y-128016000D01*
X151206539Y-127572853D01*
X150955517Y-127197170D01*
X150579834Y-126946148D01*
X150136687Y-126858000D01*
X150091313Y-126858000D01*
X149648166Y-126946148D01*
X149404000Y-127109294D01*
X149404000Y-126382706D01*
X149648166Y-126545852D01*
X150091313Y-126634000D01*
X150136687Y-126634000D01*
X150579834Y-126545852D01*
X150955517Y-126294830D01*
X151206539Y-125919147D01*
X151294687Y-125476000D01*
X151282284Y-125413642D01*
X151398389Y-125413642D01*
X151683841Y-125957423D01*
X152155660Y-126350573D01*
X152462361Y-126477596D01*
X152704000Y-126387921D01*
X152704000Y-125172000D01*
X151486761Y-125172000D01*
X151398389Y-125413642D01*
X151282284Y-125413642D01*
X151206539Y-125032853D01*
X150955517Y-124657170D01*
X150753756Y-124522358D01*
X151398389Y-124522358D01*
X151486761Y-124764000D01*
X152704000Y-124764000D01*
X152704000Y-123548079D01*
X153112000Y-123548079D01*
X153112000Y-124764000D01*
X153132000Y-124764000D01*
X153132000Y-125172000D01*
X153112000Y-125172000D01*
X153112000Y-126387921D01*
X153353639Y-126477596D01*
X153660340Y-126350573D01*
X154071497Y-126007970D01*
X154091950Y-126116667D01*
X154170356Y-126238513D01*
X154289989Y-126320255D01*
X154432000Y-126349013D01*
X156464000Y-126349013D01*
X156596667Y-126324050D01*
X156718513Y-126245644D01*
X156800255Y-126126011D01*
X156829013Y-125984000D01*
X156829013Y-125413642D01*
X158256389Y-125413642D01*
X158541841Y-125957423D01*
X159013660Y-126350573D01*
X159320361Y-126477596D01*
X159562000Y-126387921D01*
X159562000Y-125172000D01*
X158344761Y-125172000D01*
X158256389Y-125413642D01*
X156829013Y-125413642D01*
X156829013Y-124522358D01*
X158256389Y-124522358D01*
X158344761Y-124764000D01*
X159562000Y-124764000D01*
X159562000Y-123548079D01*
X159970000Y-123548079D01*
X159970000Y-124764000D01*
X159990000Y-124764000D01*
X159990000Y-125172000D01*
X159970000Y-125172000D01*
X159970000Y-126387921D01*
X160211639Y-126477596D01*
X160518340Y-126350573D01*
X160929497Y-126007970D01*
X160949950Y-126116667D01*
X161028356Y-126238513D01*
X161147989Y-126320255D01*
X161290000Y-126349013D01*
X163322000Y-126349013D01*
X163454667Y-126324050D01*
X163576513Y-126245644D01*
X163658255Y-126126011D01*
X163687013Y-125984000D01*
X163687013Y-123952000D01*
X163662050Y-123819333D01*
X163583644Y-123697487D01*
X163464011Y-123615745D01*
X163322000Y-123586987D01*
X161290000Y-123586987D01*
X161157333Y-123611950D01*
X161035487Y-123690356D01*
X160953745Y-123809989D01*
X160929791Y-123928275D01*
X160518340Y-123585427D01*
X160211639Y-123458404D01*
X159970000Y-123548079D01*
X159562000Y-123548079D01*
X159320361Y-123458404D01*
X159013660Y-123585427D01*
X158541841Y-123978577D01*
X158256389Y-124522358D01*
X156829013Y-124522358D01*
X156829013Y-123952000D01*
X156804050Y-123819333D01*
X156725644Y-123697487D01*
X156606011Y-123615745D01*
X156464000Y-123586987D01*
X154432000Y-123586987D01*
X154299333Y-123611950D01*
X154177487Y-123690356D01*
X154095745Y-123809989D01*
X154071791Y-123928275D01*
X153660340Y-123585427D01*
X153353639Y-123458404D01*
X153112000Y-123548079D01*
X152704000Y-123548079D01*
X152462361Y-123458404D01*
X152155660Y-123585427D01*
X151683841Y-123978577D01*
X151398389Y-124522358D01*
X150753756Y-124522358D01*
X150579834Y-124406148D01*
X150136687Y-124318000D01*
X150091313Y-124318000D01*
X149648166Y-124406148D01*
X149404000Y-124569294D01*
X149404000Y-123842706D01*
X149648166Y-124005852D01*
X150091313Y-124094000D01*
X150136687Y-124094000D01*
X150579834Y-124005852D01*
X150955517Y-123754830D01*
X151206539Y-123379147D01*
X151294687Y-122936000D01*
X151232191Y-122621810D01*
X152249886Y-122621810D01*
X152349849Y-122863740D01*
X152534786Y-123049000D01*
X152776541Y-123149386D01*
X153038310Y-123149614D01*
X153280240Y-123049651D01*
X153465500Y-122864714D01*
X153539995Y-122685310D01*
X155107386Y-122685310D01*
X155207349Y-122927240D01*
X155392286Y-123112500D01*
X155634041Y-123212886D01*
X155895810Y-123213114D01*
X156137740Y-123113151D01*
X156323000Y-122928214D01*
X156423386Y-122686459D01*
X156423614Y-122424690D01*
X156323651Y-122182760D01*
X156138714Y-121997500D01*
X155896959Y-121897114D01*
X155635190Y-121896886D01*
X155393260Y-121996849D01*
X155208000Y-122181786D01*
X155107614Y-122423541D01*
X155107386Y-122685310D01*
X153539995Y-122685310D01*
X153565886Y-122622959D01*
X153566114Y-122361190D01*
X153466151Y-122119260D01*
X153281214Y-121934000D01*
X153039459Y-121833614D01*
X152777690Y-121833386D01*
X152535760Y-121933349D01*
X152350500Y-122118286D01*
X152250114Y-122360041D01*
X152249886Y-122621810D01*
X151232191Y-122621810D01*
X151206539Y-122492853D01*
X150955517Y-122117170D01*
X150579834Y-121866148D01*
X150136687Y-121778000D01*
X150091313Y-121778000D01*
X149648166Y-121866148D01*
X149404000Y-122029294D01*
X149404000Y-121302706D01*
X149648166Y-121465852D01*
X150091313Y-121554000D01*
X150136687Y-121554000D01*
X150579834Y-121465852D01*
X150955517Y-121214830D01*
X151206539Y-120839147D01*
X151294687Y-120396000D01*
X151206539Y-119952853D01*
X150955517Y-119577170D01*
X150579834Y-119326148D01*
X150136687Y-119238000D01*
X150091313Y-119238000D01*
X149648166Y-119326148D01*
X149404000Y-119489294D01*
X149404000Y-118289000D01*
X155570651Y-118289000D01*
X156393729Y-118838963D01*
M02*
