M48
INCH,TZ
T1C0.016
T2C0.031
T3C0.040
%
G90
G05
T1
X60200Y-48225
X60400Y-57900
X60625Y-58125
X61000Y-56550
X61000Y-56900
X61325Y-48250
X61325Y-57550
X61925Y-57525
X61950Y-55275
X62125Y-59025
X62125Y-59425
X62500Y-57525
X62850Y-57525
X63150Y-55925
X63175Y-56575
X63200Y-56250
X63225Y-57500
X63750Y-60775
X63800Y-59150
X64350Y-46800
T2
X59100Y-47400
X59100Y-48400
X59100Y-49400
X59100Y-50400
X59100Y-51400
X59100Y-52400
X59100Y-53400
X59100Y-54400
X59100Y-55400
X59100Y-56400
X59100Y-57400
X59100Y-58400
X59100Y-59400
X59100Y-60400
X65100Y-47400
X65100Y-48400
X65100Y-49400
X65100Y-50400
X65100Y-51400
X65100Y-52400
X65100Y-53400
X65100Y-54400
X65100Y-55400
X65100Y-56400
X65100Y-57400
X65100Y-58400
X65100Y-59400
X65100Y-60400
T3
X60200Y-49200
X61200Y-49200
X62900Y-49200
X62900Y-51500
X62900Y-52500
X62900Y-53500
X63900Y-49200
X63900Y-51500
X63900Y-52500
X63900Y-53500
T0
M30
