G04 #@! TF.FileFunction,Legend,Top*
%FSLAX46Y46*%
G04 Gerber Fmt 4.6, Leading zero omitted, Abs format (unit mm)*
G04 Created by KiCad (PCBNEW 4.0.2-stable) date 6/14/2016 9:54:22 PM*
%MOMM*%
G01*
G04 APERTURE LIST*
%ADD10C,0.100000*%
%ADD11C,0.150000*%
%ADD12C,0.010000*%
G04 APERTURE END LIST*
D10*
D11*
X156058500Y-135009000D02*
X156058500Y-136009000D01*
X157758500Y-136009000D02*
X157758500Y-135009000D01*
X155075000Y-150646500D02*
X156075000Y-150646500D01*
X156075000Y-148946500D02*
X155075000Y-148946500D01*
X160456500Y-148946500D02*
X159456500Y-148946500D01*
X159456500Y-150646500D02*
X160456500Y-150646500D01*
X154178000Y-126238000D02*
X151638000Y-126238000D01*
X156998000Y-126518000D02*
X155448000Y-126518000D01*
X154178000Y-126238000D02*
X154178000Y-123698000D01*
X155448000Y-123418000D02*
X156998000Y-123418000D01*
X156998000Y-123418000D02*
X156998000Y-126518000D01*
X154178000Y-123698000D02*
X151638000Y-123698000D01*
X151638000Y-123698000D02*
X151638000Y-126238000D01*
X161036000Y-126238000D02*
X158496000Y-126238000D01*
X163856000Y-126518000D02*
X162306000Y-126518000D01*
X161036000Y-126238000D02*
X161036000Y-123698000D01*
X162306000Y-123418000D02*
X163856000Y-123418000D01*
X163856000Y-123418000D02*
X163856000Y-126518000D01*
X161036000Y-123698000D02*
X158496000Y-123698000D01*
X158496000Y-123698000D02*
X158496000Y-126238000D01*
X163435000Y-119923000D02*
X163435000Y-121123000D01*
X161685000Y-121123000D02*
X161685000Y-119923000D01*
X159272000Y-121123000D02*
X159272000Y-119923000D01*
X161022000Y-119923000D02*
X161022000Y-121123000D01*
X156859000Y-121123000D02*
X156859000Y-119923000D01*
X158609000Y-119923000D02*
X158609000Y-121123000D01*
X154446000Y-121123000D02*
X154446000Y-119923000D01*
X156196000Y-119923000D02*
X156196000Y-121123000D01*
X153783000Y-119923000D02*
X153783000Y-121123000D01*
X152033000Y-121123000D02*
X152033000Y-119923000D01*
X154109000Y-146881000D02*
X154434000Y-146881000D01*
X154109000Y-139631000D02*
X154434000Y-139631000D01*
X161359000Y-139631000D02*
X161034000Y-139631000D01*
X161359000Y-146881000D02*
X161034000Y-146881000D01*
X154109000Y-146881000D02*
X154109000Y-146556000D01*
X161359000Y-146881000D02*
X161359000Y-146556000D01*
X161359000Y-139631000D02*
X161359000Y-139956000D01*
X154109000Y-139631000D02*
X154109000Y-139956000D01*
X154434000Y-146881000D02*
X154434000Y-148306000D01*
X163576000Y-134620000D02*
X163576000Y-129540000D01*
X163856000Y-137440000D02*
X162306000Y-137440000D01*
X161036000Y-137160000D02*
X161036000Y-134620000D01*
X161036000Y-134620000D02*
X163576000Y-134620000D01*
X163576000Y-129540000D02*
X158496000Y-129540000D01*
X158496000Y-129540000D02*
X158496000Y-134620000D01*
X163856000Y-137440000D02*
X163856000Y-135890000D01*
X158496000Y-137160000D02*
X161036000Y-137160000D01*
X158496000Y-134620000D02*
X158496000Y-137160000D01*
D12*
G36*
X153999482Y-135561625D02*
X154128889Y-135514535D01*
X154262667Y-135509000D01*
X154478399Y-135537351D01*
X154558967Y-135615317D01*
X154559000Y-135617309D01*
X154621526Y-135746262D01*
X154728334Y-135847666D01*
X154865494Y-135983926D01*
X154863648Y-136122113D01*
X154719281Y-136300669D01*
X154683847Y-136334500D01*
X154491666Y-136457753D01*
X154274907Y-136520119D01*
X154085709Y-136516982D01*
X153976210Y-136443728D01*
X153966334Y-136398000D01*
X154040255Y-136296056D01*
X154184048Y-136271000D01*
X154406841Y-136231081D01*
X154539457Y-136132441D01*
X154549867Y-136006754D01*
X154507530Y-135951091D01*
X154340364Y-135870455D01*
X154181574Y-135847666D01*
X154013806Y-135809373D01*
X153966334Y-135678333D01*
X153999482Y-135561625D01*
X153999482Y-135561625D01*
G37*
X153999482Y-135561625D02*
X154128889Y-135514535D01*
X154262667Y-135509000D01*
X154478399Y-135537351D01*
X154558967Y-135615317D01*
X154559000Y-135617309D01*
X154621526Y-135746262D01*
X154728334Y-135847666D01*
X154865494Y-135983926D01*
X154863648Y-136122113D01*
X154719281Y-136300669D01*
X154683847Y-136334500D01*
X154491666Y-136457753D01*
X154274907Y-136520119D01*
X154085709Y-136516982D01*
X153976210Y-136443728D01*
X153966334Y-136398000D01*
X154040255Y-136296056D01*
X154184048Y-136271000D01*
X154406841Y-136231081D01*
X154539457Y-136132441D01*
X154549867Y-136006754D01*
X154507530Y-135951091D01*
X154340364Y-135870455D01*
X154181574Y-135847666D01*
X154013806Y-135809373D01*
X153966334Y-135678333D01*
X153999482Y-135561625D01*
G36*
X153977558Y-134683486D02*
X154081869Y-134471930D01*
X154266389Y-134341552D01*
X154378751Y-134323666D01*
X154491847Y-134355397D01*
X154553031Y-134478707D01*
X154581673Y-134683500D01*
X154614083Y-135043333D01*
X154628875Y-134683500D01*
X154660067Y-134435763D01*
X154732884Y-134330919D01*
X154770667Y-134323666D01*
X154852091Y-134396017D01*
X154892572Y-134573837D01*
X154892087Y-134798281D01*
X154850608Y-135010504D01*
X154771020Y-135149166D01*
X154560118Y-135240773D01*
X154304926Y-135237975D01*
X154273278Y-135223525D01*
X154273278Y-134928082D01*
X154287936Y-134815626D01*
X154288495Y-134789333D01*
X154279343Y-134644737D01*
X154252838Y-134632007D01*
X154249464Y-134639555D01*
X154232715Y-134807634D01*
X154246327Y-134893555D01*
X154273278Y-134928082D01*
X154273278Y-135223525D01*
X154096455Y-135142787D01*
X154087286Y-135134047D01*
X153972888Y-134922199D01*
X153977558Y-134683486D01*
X153977558Y-134683486D01*
G37*
X153977558Y-134683486D02*
X154081869Y-134471930D01*
X154266389Y-134341552D01*
X154378751Y-134323666D01*
X154491847Y-134355397D01*
X154553031Y-134478707D01*
X154581673Y-134683500D01*
X154614083Y-135043333D01*
X154628875Y-134683500D01*
X154660067Y-134435763D01*
X154732884Y-134330919D01*
X154770667Y-134323666D01*
X154852091Y-134396017D01*
X154892572Y-134573837D01*
X154892087Y-134798281D01*
X154850608Y-135010504D01*
X154771020Y-135149166D01*
X154560118Y-135240773D01*
X154304926Y-135237975D01*
X154273278Y-135223525D01*
X154273278Y-134928082D01*
X154287936Y-134815626D01*
X154288495Y-134789333D01*
X154279343Y-134644737D01*
X154252838Y-134632007D01*
X154249464Y-134639555D01*
X154232715Y-134807634D01*
X154246327Y-134893555D01*
X154273278Y-134928082D01*
X154273278Y-135223525D01*
X154096455Y-135142787D01*
X154087286Y-135134047D01*
X153972888Y-134922199D01*
X153977558Y-134683486D01*
G36*
X153969961Y-133284312D02*
X154016296Y-133117558D01*
X154093334Y-133053666D01*
X154193098Y-133127555D01*
X154220334Y-133313714D01*
X154282967Y-133600631D01*
X154462109Y-133771766D01*
X154679953Y-133815666D01*
X154854713Y-133858788D01*
X154897667Y-133942666D01*
X154855860Y-134019255D01*
X154709164Y-134058686D01*
X154432000Y-134069666D01*
X154146085Y-134056927D01*
X154000421Y-134013986D01*
X153966334Y-133949722D01*
X154030349Y-133813764D01*
X154072167Y-133787073D01*
X154134559Y-133748819D01*
X154072167Y-133737684D01*
X153995836Y-133660965D01*
X153962454Y-133487644D01*
X153969961Y-133284312D01*
X153969961Y-133284312D01*
G37*
X153969961Y-133284312D02*
X154016296Y-133117558D01*
X154093334Y-133053666D01*
X154193098Y-133127555D01*
X154220334Y-133313714D01*
X154282967Y-133600631D01*
X154462109Y-133771766D01*
X154679953Y-133815666D01*
X154854713Y-133858788D01*
X154897667Y-133942666D01*
X154855860Y-134019255D01*
X154709164Y-134058686D01*
X154432000Y-134069666D01*
X154146085Y-134056927D01*
X154000421Y-134013986D01*
X153966334Y-133949722D01*
X154030349Y-133813764D01*
X154072167Y-133787073D01*
X154134559Y-133748819D01*
X154072167Y-133737684D01*
X153995836Y-133660965D01*
X153962454Y-133487644D01*
X153969961Y-133284312D01*
G36*
X153689410Y-130960097D02*
X153962492Y-130938255D01*
X154093334Y-130937000D01*
X154380916Y-130925037D01*
X154577810Y-130893348D01*
X154643667Y-130852333D01*
X154712243Y-130777219D01*
X154770667Y-130767666D01*
X154858974Y-130823590D01*
X154895362Y-131008969D01*
X154897667Y-131106333D01*
X154876696Y-131341818D01*
X154807178Y-131438853D01*
X154770667Y-131445000D01*
X154658418Y-131377227D01*
X154643667Y-131318000D01*
X154575328Y-131223331D01*
X154411634Y-131189214D01*
X154214567Y-131213601D01*
X154046108Y-131294446D01*
X154002767Y-131339166D01*
X153915982Y-131432218D01*
X153831792Y-131411670D01*
X153718266Y-131300373D01*
X153580640Y-131128230D01*
X153566573Y-131019113D01*
X153689410Y-130960097D01*
X153689410Y-130960097D01*
G37*
X153689410Y-130960097D02*
X153962492Y-130938255D01*
X154093334Y-130937000D01*
X154380916Y-130925037D01*
X154577810Y-130893348D01*
X154643667Y-130852333D01*
X154712243Y-130777219D01*
X154770667Y-130767666D01*
X154858974Y-130823590D01*
X154895362Y-131008969D01*
X154897667Y-131106333D01*
X154876696Y-131341818D01*
X154807178Y-131438853D01*
X154770667Y-131445000D01*
X154658418Y-131377227D01*
X154643667Y-131318000D01*
X154575328Y-131223331D01*
X154411634Y-131189214D01*
X154214567Y-131213601D01*
X154046108Y-131294446D01*
X154002767Y-131339166D01*
X153915982Y-131432218D01*
X153831792Y-131411670D01*
X153718266Y-131300373D01*
X153580640Y-131128230D01*
X153566573Y-131019113D01*
X153689410Y-130960097D01*
G36*
X154711440Y-129766418D02*
X154770667Y-129751666D01*
X154882915Y-129819439D01*
X154897667Y-129878666D01*
X154829894Y-129990915D01*
X154770667Y-130005666D01*
X154658418Y-129937894D01*
X154643667Y-129878666D01*
X154711440Y-129766418D01*
X154711440Y-129766418D01*
G37*
X154711440Y-129766418D02*
X154770667Y-129751666D01*
X154882915Y-129819439D01*
X154897667Y-129878666D01*
X154829894Y-129990915D01*
X154770667Y-130005666D01*
X154658418Y-129937894D01*
X154643667Y-129878666D01*
X154711440Y-129766418D01*
G36*
X153659596Y-128268396D02*
X153663953Y-128263952D01*
X153835412Y-128184132D01*
X154102510Y-128146358D01*
X154396855Y-128150630D01*
X154650057Y-128196947D01*
X154776714Y-128263952D01*
X154853758Y-128407070D01*
X154892348Y-128603284D01*
X154888831Y-128788042D01*
X154839554Y-128896793D01*
X154813000Y-128905000D01*
X154737886Y-128973576D01*
X154728334Y-129032000D01*
X154655581Y-129121200D01*
X154604199Y-129133654D01*
X154604199Y-128778082D01*
X154640177Y-128737725D01*
X154643667Y-128614714D01*
X154614388Y-128454895D01*
X154491944Y-128401026D01*
X154410834Y-128398296D01*
X154271691Y-128417398D01*
X154263077Y-128461539D01*
X154263429Y-128461796D01*
X154386081Y-128568860D01*
X154496263Y-128678214D01*
X154604199Y-128778082D01*
X154604199Y-129133654D01*
X154471786Y-129165749D01*
X154228643Y-129167801D01*
X154054849Y-129141267D01*
X154054849Y-128820333D01*
X154312697Y-128820333D01*
X154101030Y-128608666D01*
X153948444Y-128467855D01*
X153850203Y-128398510D01*
X153843182Y-128397000D01*
X153808431Y-128469640D01*
X153797000Y-128608666D01*
X153823779Y-128759132D01*
X153938274Y-128814843D01*
X154054849Y-128820333D01*
X154054849Y-129141267D01*
X153977847Y-129129510D01*
X153771092Y-129053028D01*
X153688817Y-128988699D01*
X153567672Y-128747756D01*
X153557102Y-128483472D01*
X153659596Y-128268396D01*
X153659596Y-128268396D01*
G37*
X153659596Y-128268396D02*
X153663953Y-128263952D01*
X153835412Y-128184132D01*
X154102510Y-128146358D01*
X154396855Y-128150630D01*
X154650057Y-128196947D01*
X154776714Y-128263952D01*
X154853758Y-128407070D01*
X154892348Y-128603284D01*
X154888831Y-128788042D01*
X154839554Y-128896793D01*
X154813000Y-128905000D01*
X154737886Y-128973576D01*
X154728334Y-129032000D01*
X154655581Y-129121200D01*
X154604199Y-129133654D01*
X154604199Y-128778082D01*
X154640177Y-128737725D01*
X154643667Y-128614714D01*
X154614388Y-128454895D01*
X154491944Y-128401026D01*
X154410834Y-128398296D01*
X154271691Y-128417398D01*
X154263077Y-128461539D01*
X154263429Y-128461796D01*
X154386081Y-128568860D01*
X154496263Y-128678214D01*
X154604199Y-128778082D01*
X154604199Y-129133654D01*
X154471786Y-129165749D01*
X154228643Y-129167801D01*
X154054849Y-129141267D01*
X154054849Y-128820333D01*
X154312697Y-128820333D01*
X154101030Y-128608666D01*
X153948444Y-128467855D01*
X153850203Y-128398510D01*
X153843182Y-128397000D01*
X153808431Y-128469640D01*
X153797000Y-128608666D01*
X153823779Y-128759132D01*
X153938274Y-128814843D01*
X154054849Y-128820333D01*
X154054849Y-129141267D01*
X153977847Y-129129510D01*
X153771092Y-129053028D01*
X153688817Y-128988699D01*
X153567672Y-128747756D01*
X153557102Y-128483472D01*
X153659596Y-128268396D01*
G36*
X152199345Y-138217869D02*
X152257195Y-138079306D01*
X152315334Y-138049000D01*
X152417277Y-138122922D01*
X152442334Y-138266714D01*
X152487612Y-138481518D01*
X152563286Y-138605381D01*
X152738968Y-138699561D01*
X152901953Y-138726333D01*
X153076713Y-138769454D01*
X153119667Y-138853333D01*
X153077860Y-138929922D01*
X152931164Y-138969353D01*
X152654000Y-138980333D01*
X152368085Y-138967594D01*
X152222421Y-138924653D01*
X152188334Y-138860389D01*
X152252349Y-138724430D01*
X152294167Y-138697740D01*
X152356559Y-138659486D01*
X152294167Y-138648351D01*
X152215347Y-138572714D01*
X152184568Y-138405779D01*
X152199345Y-138217869D01*
X152199345Y-138217869D01*
G37*
X152199345Y-138217869D02*
X152257195Y-138079306D01*
X152315334Y-138049000D01*
X152417277Y-138122922D01*
X152442334Y-138266714D01*
X152487612Y-138481518D01*
X152563286Y-138605381D01*
X152738968Y-138699561D01*
X152901953Y-138726333D01*
X153076713Y-138769454D01*
X153119667Y-138853333D01*
X153077860Y-138929922D01*
X152931164Y-138969353D01*
X152654000Y-138980333D01*
X152368085Y-138967594D01*
X152222421Y-138924653D01*
X152188334Y-138860389D01*
X152252349Y-138724430D01*
X152294167Y-138697740D01*
X152356559Y-138659486D01*
X152294167Y-138648351D01*
X152215347Y-138572714D01*
X152184568Y-138405779D01*
X152199345Y-138217869D01*
G36*
X152199558Y-137138819D02*
X152303869Y-136927263D01*
X152488389Y-136796885D01*
X152600751Y-136779000D01*
X152713847Y-136810730D01*
X152775031Y-136934040D01*
X152803673Y-137138833D01*
X152836083Y-137498666D01*
X152850875Y-137138833D01*
X152882067Y-136891096D01*
X152954884Y-136786252D01*
X152992667Y-136779000D01*
X153074091Y-136851350D01*
X153114572Y-137029170D01*
X153114087Y-137253614D01*
X153072608Y-137465837D01*
X152993020Y-137604500D01*
X152782118Y-137696106D01*
X152526926Y-137693309D01*
X152495278Y-137678859D01*
X152495278Y-137383416D01*
X152509936Y-137270959D01*
X152510495Y-137244666D01*
X152501343Y-137100071D01*
X152474838Y-137087340D01*
X152471464Y-137094888D01*
X152454715Y-137262968D01*
X152468327Y-137348888D01*
X152495278Y-137383416D01*
X152495278Y-137678859D01*
X152318455Y-137598120D01*
X152309286Y-137589381D01*
X152194888Y-137377532D01*
X152199558Y-137138819D01*
X152199558Y-137138819D01*
G37*
X152199558Y-137138819D02*
X152303869Y-136927263D01*
X152488389Y-136796885D01*
X152600751Y-136779000D01*
X152713847Y-136810730D01*
X152775031Y-136934040D01*
X152803673Y-137138833D01*
X152836083Y-137498666D01*
X152850875Y-137138833D01*
X152882067Y-136891096D01*
X152954884Y-136786252D01*
X152992667Y-136779000D01*
X153074091Y-136851350D01*
X153114572Y-137029170D01*
X153114087Y-137253614D01*
X153072608Y-137465837D01*
X152993020Y-137604500D01*
X152782118Y-137696106D01*
X152526926Y-137693309D01*
X152495278Y-137678859D01*
X152495278Y-137383416D01*
X152509936Y-137270959D01*
X152510495Y-137244666D01*
X152501343Y-137100071D01*
X152474838Y-137087340D01*
X152471464Y-137094888D01*
X152454715Y-137262968D01*
X152468327Y-137348888D01*
X152495278Y-137383416D01*
X152495278Y-137678859D01*
X152318455Y-137598120D01*
X152309286Y-137589381D01*
X152194888Y-137377532D01*
X152199558Y-137138819D01*
G36*
X151838601Y-136126523D02*
X151976667Y-136101666D01*
X152142648Y-136061980D01*
X152188334Y-135932333D01*
X152241273Y-135794429D01*
X152315334Y-135763000D01*
X152418762Y-135833586D01*
X152442334Y-135932333D01*
X152491942Y-136065118D01*
X152654000Y-136101666D01*
X152824239Y-136057506D01*
X152865667Y-135974666D01*
X152819949Y-135861995D01*
X152781000Y-135847666D01*
X152712210Y-135776754D01*
X152696334Y-135678333D01*
X152749273Y-135540429D01*
X152823334Y-135509000D01*
X152935582Y-135576773D01*
X152950334Y-135636000D01*
X152996051Y-135748672D01*
X153035000Y-135763000D01*
X153103797Y-135829172D01*
X153111124Y-135981712D01*
X153062929Y-136151649D01*
X152993020Y-136249833D01*
X152817316Y-136332657D01*
X152657574Y-136355666D01*
X152496757Y-136384210D01*
X152442334Y-136440333D01*
X152373757Y-136515448D01*
X152315334Y-136525000D01*
X152202662Y-136479282D01*
X152188334Y-136440333D01*
X152115877Y-136376687D01*
X151976667Y-136355666D01*
X151806428Y-136311506D01*
X151765000Y-136228666D01*
X151838601Y-136126523D01*
X151838601Y-136126523D01*
G37*
X151838601Y-136126523D02*
X151976667Y-136101666D01*
X152142648Y-136061980D01*
X152188334Y-135932333D01*
X152241273Y-135794429D01*
X152315334Y-135763000D01*
X152418762Y-135833586D01*
X152442334Y-135932333D01*
X152491942Y-136065118D01*
X152654000Y-136101666D01*
X152824239Y-136057506D01*
X152865667Y-135974666D01*
X152819949Y-135861995D01*
X152781000Y-135847666D01*
X152712210Y-135776754D01*
X152696334Y-135678333D01*
X152749273Y-135540429D01*
X152823334Y-135509000D01*
X152935582Y-135576773D01*
X152950334Y-135636000D01*
X152996051Y-135748672D01*
X153035000Y-135763000D01*
X153103797Y-135829172D01*
X153111124Y-135981712D01*
X153062929Y-136151649D01*
X152993020Y-136249833D01*
X152817316Y-136332657D01*
X152657574Y-136355666D01*
X152496757Y-136384210D01*
X152442334Y-136440333D01*
X152373757Y-136515448D01*
X152315334Y-136525000D01*
X152202662Y-136479282D01*
X152188334Y-136440333D01*
X152115877Y-136376687D01*
X151976667Y-136355666D01*
X151806428Y-136311506D01*
X151765000Y-136228666D01*
X151838601Y-136126523D01*
G36*
X152199345Y-134492535D02*
X152257195Y-134353973D01*
X152315334Y-134323666D01*
X152417277Y-134397588D01*
X152442334Y-134541381D01*
X152487612Y-134756185D01*
X152563286Y-134880047D01*
X152738968Y-134974228D01*
X152901953Y-135001000D01*
X153076713Y-135044121D01*
X153119667Y-135128000D01*
X153077860Y-135204588D01*
X152931164Y-135244019D01*
X152654000Y-135255000D01*
X152368085Y-135242260D01*
X152222421Y-135199320D01*
X152188334Y-135135055D01*
X152252349Y-134999097D01*
X152294167Y-134972406D01*
X152356559Y-134934153D01*
X152294167Y-134923017D01*
X152215347Y-134847380D01*
X152184568Y-134680445D01*
X152199345Y-134492535D01*
X152199345Y-134492535D01*
G37*
X152199345Y-134492535D02*
X152257195Y-134353973D01*
X152315334Y-134323666D01*
X152417277Y-134397588D01*
X152442334Y-134541381D01*
X152487612Y-134756185D01*
X152563286Y-134880047D01*
X152738968Y-134974228D01*
X152901953Y-135001000D01*
X153076713Y-135044121D01*
X153119667Y-135128000D01*
X153077860Y-135204588D01*
X152931164Y-135244019D01*
X152654000Y-135255000D01*
X152368085Y-135242260D01*
X152222421Y-135199320D01*
X152188334Y-135135055D01*
X152252349Y-134999097D01*
X152294167Y-134972406D01*
X152356559Y-134934153D01*
X152294167Y-134923017D01*
X152215347Y-134847380D01*
X152184568Y-134680445D01*
X152199345Y-134492535D01*
G36*
X152225245Y-133333832D02*
X152309286Y-133174619D01*
X152514236Y-133072655D01*
X152768503Y-133067692D01*
X152982608Y-133159731D01*
X152998714Y-133174619D01*
X153089272Y-133360044D01*
X153111700Y-133612118D01*
X153066590Y-133848993D01*
X152993020Y-133963833D01*
X152782118Y-134055439D01*
X152654000Y-134054035D01*
X152654000Y-133815666D01*
X152805272Y-133788329D01*
X152860612Y-133672121D01*
X152865667Y-133561666D01*
X152842886Y-133380140D01*
X152746046Y-133313732D01*
X152654000Y-133307666D01*
X152502728Y-133335004D01*
X152447388Y-133451212D01*
X152442334Y-133561666D01*
X152465115Y-133743193D01*
X152561955Y-133809601D01*
X152654000Y-133815666D01*
X152654000Y-134054035D01*
X152526926Y-134052642D01*
X152318455Y-133957454D01*
X152309286Y-133948714D01*
X152222503Y-133780725D01*
X152188334Y-133561666D01*
X152225245Y-133333832D01*
X152225245Y-133333832D01*
G37*
X152225245Y-133333832D02*
X152309286Y-133174619D01*
X152514236Y-133072655D01*
X152768503Y-133067692D01*
X152982608Y-133159731D01*
X152998714Y-133174619D01*
X153089272Y-133360044D01*
X153111700Y-133612118D01*
X153066590Y-133848993D01*
X152993020Y-133963833D01*
X152782118Y-134055439D01*
X152654000Y-134054035D01*
X152654000Y-133815666D01*
X152805272Y-133788329D01*
X152860612Y-133672121D01*
X152865667Y-133561666D01*
X152842886Y-133380140D01*
X152746046Y-133313732D01*
X152654000Y-133307666D01*
X152502728Y-133335004D01*
X152447388Y-133451212D01*
X152442334Y-133561666D01*
X152465115Y-133743193D01*
X152561955Y-133809601D01*
X152654000Y-133815666D01*
X152654000Y-134054035D01*
X152526926Y-134052642D01*
X152318455Y-133957454D01*
X152309286Y-133948714D01*
X152222503Y-133780725D01*
X152188334Y-133561666D01*
X152225245Y-133333832D01*
G36*
X151769702Y-130909617D02*
X151835026Y-130785716D01*
X151892000Y-130767666D01*
X152004672Y-130721949D01*
X152019000Y-130683000D01*
X152087577Y-130607885D01*
X152146000Y-130598333D01*
X152258249Y-130666106D01*
X152273000Y-130725333D01*
X152227283Y-130838005D01*
X152188334Y-130852333D01*
X152128886Y-130925906D01*
X152103673Y-131103173D01*
X152103667Y-131106333D01*
X152141531Y-131307985D01*
X152230667Y-131360333D01*
X152330431Y-131286444D01*
X152357667Y-131100286D01*
X152415084Y-130828378D01*
X152567106Y-130648745D01*
X152738667Y-130598333D01*
X152925356Y-130671655D01*
X153058248Y-130855105D01*
X153122038Y-131093912D01*
X153101418Y-131333304D01*
X152993020Y-131508500D01*
X152826669Y-131605665D01*
X152718808Y-131574537D01*
X152696334Y-131487333D01*
X152742051Y-131374661D01*
X152781000Y-131360333D01*
X152840447Y-131286761D01*
X152865660Y-131109493D01*
X152865667Y-131106333D01*
X152827803Y-130904681D01*
X152738667Y-130852333D01*
X152638903Y-130926222D01*
X152611667Y-131112381D01*
X152554222Y-131397490D01*
X152403366Y-131565276D01*
X152191314Y-131598774D01*
X151950284Y-131481022D01*
X151935301Y-131468517D01*
X151823377Y-131308266D01*
X151766998Y-131102883D01*
X151769702Y-130909617D01*
X151769702Y-130909617D01*
G37*
X151769702Y-130909617D02*
X151835026Y-130785716D01*
X151892000Y-130767666D01*
X152004672Y-130721949D01*
X152019000Y-130683000D01*
X152087577Y-130607885D01*
X152146000Y-130598333D01*
X152258249Y-130666106D01*
X152273000Y-130725333D01*
X152227283Y-130838005D01*
X152188334Y-130852333D01*
X152128886Y-130925906D01*
X152103673Y-131103173D01*
X152103667Y-131106333D01*
X152141531Y-131307985D01*
X152230667Y-131360333D01*
X152330431Y-131286444D01*
X152357667Y-131100286D01*
X152415084Y-130828378D01*
X152567106Y-130648745D01*
X152738667Y-130598333D01*
X152925356Y-130671655D01*
X153058248Y-130855105D01*
X153122038Y-131093912D01*
X153101418Y-131333304D01*
X152993020Y-131508500D01*
X152826669Y-131605665D01*
X152718808Y-131574537D01*
X152696334Y-131487333D01*
X152742051Y-131374661D01*
X152781000Y-131360333D01*
X152840447Y-131286761D01*
X152865660Y-131109493D01*
X152865667Y-131106333D01*
X152827803Y-130904681D01*
X152738667Y-130852333D01*
X152638903Y-130926222D01*
X152611667Y-131112381D01*
X152554222Y-131397490D01*
X152403366Y-131565276D01*
X152191314Y-131598774D01*
X151950284Y-131481022D01*
X151935301Y-131468517D01*
X151823377Y-131308266D01*
X151766998Y-131102883D01*
X151769702Y-130909617D01*
G36*
X151783942Y-129674427D02*
X151857889Y-129592020D01*
X151934334Y-129582333D01*
X152071914Y-129617789D01*
X152103667Y-129667000D01*
X152179341Y-129717493D01*
X152370805Y-129747782D01*
X152484667Y-129751666D01*
X152711886Y-129734850D01*
X152848184Y-129692303D01*
X152865667Y-129667000D01*
X152934243Y-129591885D01*
X152992667Y-129582333D01*
X153086598Y-129646593D01*
X153119437Y-129851678D01*
X153119667Y-129878666D01*
X153092127Y-130097840D01*
X153004233Y-130174464D01*
X152992667Y-130175000D01*
X152879995Y-130129282D01*
X152865667Y-130090333D01*
X152789993Y-130039840D01*
X152598529Y-130009551D01*
X152484667Y-130005666D01*
X152257447Y-130022483D01*
X152121149Y-130065030D01*
X152103667Y-130090333D01*
X152032754Y-130159123D01*
X151934334Y-130175000D01*
X151817625Y-130141852D01*
X151770535Y-130012444D01*
X151765000Y-129878666D01*
X151783942Y-129674427D01*
X151783942Y-129674427D01*
G37*
X151783942Y-129674427D02*
X151857889Y-129592020D01*
X151934334Y-129582333D01*
X152071914Y-129617789D01*
X152103667Y-129667000D01*
X152179341Y-129717493D01*
X152370805Y-129747782D01*
X152484667Y-129751666D01*
X152711886Y-129734850D01*
X152848184Y-129692303D01*
X152865667Y-129667000D01*
X152934243Y-129591885D01*
X152992667Y-129582333D01*
X153086598Y-129646593D01*
X153119437Y-129851678D01*
X153119667Y-129878666D01*
X153092127Y-130097840D01*
X153004233Y-130174464D01*
X152992667Y-130175000D01*
X152879995Y-130129282D01*
X152865667Y-130090333D01*
X152789993Y-130039840D01*
X152598529Y-130009551D01*
X152484667Y-130005666D01*
X152257447Y-130022483D01*
X152121149Y-130065030D01*
X152103667Y-130090333D01*
X152032754Y-130159123D01*
X151934334Y-130175000D01*
X151817625Y-130141852D01*
X151770535Y-130012444D01*
X151765000Y-129878666D01*
X151783942Y-129674427D01*
G36*
X151812614Y-128341365D02*
X151887361Y-128312333D01*
X152002979Y-128268024D01*
X152019000Y-128227666D01*
X152092870Y-128171011D01*
X152277580Y-128144791D01*
X152517783Y-128146956D01*
X152758133Y-128175458D01*
X152943281Y-128228246D01*
X152998714Y-128263952D01*
X153076939Y-128428205D01*
X153117342Y-128691734D01*
X153119667Y-128775514D01*
X153119667Y-129166123D01*
X152484667Y-129142193D01*
X152484667Y-128820333D01*
X152719774Y-128811560D01*
X152831165Y-128768437D01*
X152864212Y-128665758D01*
X152865667Y-128608666D01*
X152849875Y-128478051D01*
X152772253Y-128416167D01*
X152587431Y-128397808D01*
X152484667Y-128397000D01*
X152249560Y-128405773D01*
X152138168Y-128448896D01*
X152105122Y-128551575D01*
X152103667Y-128608666D01*
X152119458Y-128739282D01*
X152197080Y-128801166D01*
X152381903Y-128819525D01*
X152484667Y-128820333D01*
X152484667Y-129142193D01*
X152463500Y-129141395D01*
X151807334Y-129116666D01*
X151781528Y-128714500D01*
X151777140Y-128463049D01*
X151812614Y-128341365D01*
X151812614Y-128341365D01*
G37*
X151812614Y-128341365D02*
X151887361Y-128312333D01*
X152002979Y-128268024D01*
X152019000Y-128227666D01*
X152092870Y-128171011D01*
X152277580Y-128144791D01*
X152517783Y-128146956D01*
X152758133Y-128175458D01*
X152943281Y-128228246D01*
X152998714Y-128263952D01*
X153076939Y-128428205D01*
X153117342Y-128691734D01*
X153119667Y-128775514D01*
X153119667Y-129166123D01*
X152484667Y-129142193D01*
X152484667Y-128820333D01*
X152719774Y-128811560D01*
X152831165Y-128768437D01*
X152864212Y-128665758D01*
X152865667Y-128608666D01*
X152849875Y-128478051D01*
X152772253Y-128416167D01*
X152587431Y-128397808D01*
X152484667Y-128397000D01*
X152249560Y-128405773D01*
X152138168Y-128448896D01*
X152105122Y-128551575D01*
X152103667Y-128608666D01*
X152119458Y-128739282D01*
X152197080Y-128801166D01*
X152381903Y-128819525D01*
X152484667Y-128820333D01*
X152484667Y-129142193D01*
X152463500Y-129141395D01*
X151807334Y-129116666D01*
X151781528Y-128714500D01*
X151777140Y-128463049D01*
X151812614Y-128341365D01*
D11*
X150266400Y-118110000D02*
X155244800Y-118110000D01*
X165227000Y-118110000D02*
X160172400Y-118110000D01*
X155295600Y-118186200D02*
G75*
G03X160147000Y-118160800I2413000J2438400D01*
G01*
X150249000Y-118101000D02*
X150249000Y-119371000D01*
X165219000Y-118101000D02*
X165219000Y-119371000D01*
X165219000Y-155711000D02*
X165219000Y-154441000D01*
X150249000Y-155711000D02*
X150249000Y-154441000D01*
X150249000Y-155711000D02*
X165219000Y-155711000D01*
X150249000Y-119371000D02*
X149314000Y-119371000D01*
D10*
X153594667Y-126870667D02*
X153594667Y-127370667D01*
X153561333Y-127470667D01*
X153494667Y-127537333D01*
X153394667Y-127570667D01*
X153328000Y-127570667D01*
X153928000Y-127570667D02*
X153928000Y-126870667D01*
X154194666Y-126870667D01*
X154261333Y-126904000D01*
X154294666Y-126937333D01*
X154328000Y-127004000D01*
X154328000Y-127104000D01*
X154294666Y-127170667D01*
X154261333Y-127204000D01*
X154194666Y-127237333D01*
X153928000Y-127237333D01*
X154994666Y-127570667D02*
X154594666Y-127570667D01*
X154794666Y-127570667D02*
X154794666Y-126870667D01*
X154728000Y-126970667D01*
X154661333Y-127037333D01*
X154594666Y-127070667D01*
X160516167Y-126870667D02*
X160516167Y-127370667D01*
X160482833Y-127470667D01*
X160416167Y-127537333D01*
X160316167Y-127570667D01*
X160249500Y-127570667D01*
X160849500Y-127570667D02*
X160849500Y-126870667D01*
X161116166Y-126870667D01*
X161182833Y-126904000D01*
X161216166Y-126937333D01*
X161249500Y-127004000D01*
X161249500Y-127104000D01*
X161216166Y-127170667D01*
X161182833Y-127204000D01*
X161116166Y-127237333D01*
X160849500Y-127237333D01*
X161516166Y-126937333D02*
X161549500Y-126904000D01*
X161616166Y-126870667D01*
X161782833Y-126870667D01*
X161849500Y-126904000D01*
X161882833Y-126937333D01*
X161916166Y-127004000D01*
X161916166Y-127070667D01*
X161882833Y-127170667D01*
X161482833Y-127570667D01*
X161916166Y-127570667D01*
X162443334Y-122998667D02*
X162210000Y-122665333D01*
X162043334Y-122998667D02*
X162043334Y-122298667D01*
X162310000Y-122298667D01*
X162376667Y-122332000D01*
X162410000Y-122365333D01*
X162443334Y-122432000D01*
X162443334Y-122532000D01*
X162410000Y-122598667D01*
X162376667Y-122632000D01*
X162310000Y-122665333D01*
X162043334Y-122665333D01*
X163110000Y-122998667D02*
X162710000Y-122998667D01*
X162910000Y-122998667D02*
X162910000Y-122298667D01*
X162843334Y-122398667D01*
X162776667Y-122465333D01*
X162710000Y-122498667D01*
X160030334Y-123125667D02*
X159797000Y-122792333D01*
X159630334Y-123125667D02*
X159630334Y-122425667D01*
X159897000Y-122425667D01*
X159963667Y-122459000D01*
X159997000Y-122492333D01*
X160030334Y-122559000D01*
X160030334Y-122659000D01*
X159997000Y-122725667D01*
X159963667Y-122759000D01*
X159897000Y-122792333D01*
X159630334Y-122792333D01*
X160297000Y-122492333D02*
X160330334Y-122459000D01*
X160397000Y-122425667D01*
X160563667Y-122425667D01*
X160630334Y-122459000D01*
X160663667Y-122492333D01*
X160697000Y-122559000D01*
X160697000Y-122625667D01*
X160663667Y-122725667D01*
X160263667Y-123125667D01*
X160697000Y-123125667D01*
X157617334Y-123125667D02*
X157384000Y-122792333D01*
X157217334Y-123125667D02*
X157217334Y-122425667D01*
X157484000Y-122425667D01*
X157550667Y-122459000D01*
X157584000Y-122492333D01*
X157617334Y-122559000D01*
X157617334Y-122659000D01*
X157584000Y-122725667D01*
X157550667Y-122759000D01*
X157484000Y-122792333D01*
X157217334Y-122792333D01*
X157850667Y-122425667D02*
X158284000Y-122425667D01*
X158050667Y-122692333D01*
X158150667Y-122692333D01*
X158217334Y-122725667D01*
X158250667Y-122759000D01*
X158284000Y-122825667D01*
X158284000Y-122992333D01*
X158250667Y-123059000D01*
X158217334Y-123092333D01*
X158150667Y-123125667D01*
X157950667Y-123125667D01*
X157884000Y-123092333D01*
X157850667Y-123059000D01*
X155204334Y-123125667D02*
X154971000Y-122792333D01*
X154804334Y-123125667D02*
X154804334Y-122425667D01*
X155071000Y-122425667D01*
X155137667Y-122459000D01*
X155171000Y-122492333D01*
X155204334Y-122559000D01*
X155204334Y-122659000D01*
X155171000Y-122725667D01*
X155137667Y-122759000D01*
X155071000Y-122792333D01*
X154804334Y-122792333D01*
X155804334Y-122659000D02*
X155804334Y-123125667D01*
X155637667Y-122392333D02*
X155471000Y-122892333D01*
X155904334Y-122892333D01*
X152791334Y-123125667D02*
X152558000Y-122792333D01*
X152391334Y-123125667D02*
X152391334Y-122425667D01*
X152658000Y-122425667D01*
X152724667Y-122459000D01*
X152758000Y-122492333D01*
X152791334Y-122559000D01*
X152791334Y-122659000D01*
X152758000Y-122725667D01*
X152724667Y-122759000D01*
X152658000Y-122792333D01*
X152391334Y-122792333D01*
X153424667Y-122425667D02*
X153091334Y-122425667D01*
X153058000Y-122759000D01*
X153091334Y-122725667D01*
X153158000Y-122692333D01*
X153324667Y-122692333D01*
X153391334Y-122725667D01*
X153424667Y-122759000D01*
X153458000Y-122825667D01*
X153458000Y-122992333D01*
X153424667Y-123059000D01*
X153391334Y-123092333D01*
X153324667Y-123125667D01*
X153158000Y-123125667D01*
X153091334Y-123092333D01*
X153058000Y-123059000D01*
X157200667Y-142872667D02*
X157200667Y-143439333D01*
X157234000Y-143506000D01*
X157267333Y-143539333D01*
X157334000Y-143572667D01*
X157467333Y-143572667D01*
X157534000Y-143539333D01*
X157567333Y-143506000D01*
X157600667Y-143439333D01*
X157600667Y-142872667D01*
X157900666Y-142939333D02*
X157934000Y-142906000D01*
X158000666Y-142872667D01*
X158167333Y-142872667D01*
X158234000Y-142906000D01*
X158267333Y-142939333D01*
X158300666Y-143006000D01*
X158300666Y-143072667D01*
X158267333Y-143172667D01*
X157867333Y-143572667D01*
X158300666Y-143572667D01*
X162049667Y-154602499D02*
X162049667Y-154202499D01*
X162749667Y-154402499D02*
X162049667Y-154402499D01*
X162683000Y-153569166D02*
X162716333Y-153602500D01*
X162749667Y-153702500D01*
X162749667Y-153769166D01*
X162716333Y-153869166D01*
X162649667Y-153935833D01*
X162583000Y-153969166D01*
X162449667Y-154002500D01*
X162349667Y-154002500D01*
X162216333Y-153969166D01*
X162149667Y-153935833D01*
X162083000Y-153869166D01*
X162049667Y-153769166D01*
X162049667Y-153702500D01*
X162083000Y-153602500D01*
X162116333Y-153569166D01*
X162049667Y-153135833D02*
X162049667Y-153002500D01*
X162083000Y-152935833D01*
X162149667Y-152869166D01*
X162283000Y-152835833D01*
X162516333Y-152835833D01*
X162649667Y-152869166D01*
X162716333Y-152935833D01*
X162749667Y-153002500D01*
X162749667Y-153135833D01*
X162716333Y-153202500D01*
X162649667Y-153269166D01*
X162516333Y-153302500D01*
X162283000Y-153302500D01*
X162149667Y-153269166D01*
X162083000Y-153202500D01*
X162049667Y-153135833D01*
X162749667Y-152169167D02*
X162749667Y-152569167D01*
X162749667Y-152369167D02*
X162049667Y-152369167D01*
X162149667Y-152435833D01*
X162216333Y-152502500D01*
X162249667Y-152569167D01*
X160519334Y-129221667D02*
X160519334Y-128521667D01*
X160786000Y-128521667D01*
X160852667Y-128555000D01*
X160886000Y-128588333D01*
X160919334Y-128655000D01*
X160919334Y-128755000D01*
X160886000Y-128821667D01*
X160852667Y-128855000D01*
X160786000Y-128888333D01*
X160519334Y-128888333D01*
X161586000Y-129221667D02*
X161186000Y-129221667D01*
X161386000Y-129221667D02*
X161386000Y-128521667D01*
X161319334Y-128621667D01*
X161252667Y-128688333D01*
X161186000Y-128721667D01*
D11*
X149352095Y-114628381D02*
X149352095Y-115437905D01*
X149399714Y-115533143D01*
X149447333Y-115580762D01*
X149542571Y-115628381D01*
X149733048Y-115628381D01*
X149828286Y-115580762D01*
X149875905Y-115533143D01*
X149923524Y-115437905D01*
X149923524Y-114628381D01*
X150923524Y-115628381D02*
X150352095Y-115628381D01*
X150637809Y-115628381D02*
X150637809Y-114628381D01*
X150542571Y-114771238D01*
X150447333Y-114866476D01*
X150352095Y-114914095D01*
M02*
